<svg xmlns="http://www.w3.org/2000/svg" width="496" height="111" fill="none"><path fill="#C4E2FE" d="M32.7031 31.0664c1.875 0 3.5157.1172 4.9219.3516 1.4062.2343 2.6836.5039 3.832.8086 1.1719.2812 2.2618.539 3.2696.7734 1.0078.2344 2.0507.3516 3.1289.3516 2.2265 0 4.3359-1.0313 6.3281-3.0938.5625-.5859 1.043-1.1719 1.4414-1.7578.4219-.5859.7969-1.1016 1.125-1.5469.3281-.4687.6328-.8437.9141-1.125.3047-.3047.6093-.457.914-.457.5157 0 .7735.2812.7735.8437 0 .3516-.2461.9141-.7383 1.6875-.4922.7735-1.0781 1.6524-1.7578 2.6368-.6797.9843-1.3828 2.0039-2.1094 3.0586-.7031 1.0546-1.2773 2.0273-1.7227 2.9179-.4453.9141-.832 1.7344-1.1601 2.461-.3047.7265-.5977 1.4531-.8789 2.1796-.2813.7032-.5625 1.4415-.8438 2.2149-.2812.75-.5976 1.6172-.9492 2.6016-.2812.8203-.5859 1.4765-.9141 1.9687-.3192.4789-2.4581 5.2515-2.9835 5.5087 1.0008-.2356 8.441.1495 8.9953.0108.5625-.164 1.0781-.2461 1.5468-.2461.6329 0 .9493.1993.9493.5977 0 .2109-.0704.3867-.211.5273-.1406.1407-.3398.2813-.5976.4219-.2344.1172-.5157.2461-.8438.3867-.3281.1407-.668.3164-1.0195.5274-.7266.4453-1.2774 1.0781-1.6524 1.8984-.3515.8203-.5273 2.0391-.5273 3.6563 0 .8437.0352 1.7578.1055 2.7422.0703.9843.1406 1.9453.2109 2.8828.0938.914.1875 1.7695.2812 2.5664.1172.7969.211 1.4297.2813 1.8984.1172.6328.2109 1.2656.2813 1.8985.0937.6093.1406 1.0781.1406 1.4062 0 .2578-.0469.4688-.1406.6328-.0938.1406-.2344.211-.4219.211-.2813 0-.6094-.1055-.9844-.3165-.3516-.2109-.7617-.4453-1.2305-.7031-.4453-.2812-.9258-.5273-1.4414-.7383-.5156-.2109-1.0547-.3164-1.6172-.3164-.7265 0-1.4414.1524-2.1445.4571-.6797.3046-1.4062.6914-2.1797 1.1601-.7734.4453-1.6289.9375-2.5664 1.4766-.9375.539-2.039 1.0429-3.3047 1.5117-1.2422.4453-2.6836.8203-4.3242 1.125-1.6172.3047-3.4922.457-5.625.457-3.0469 0-5.9062-.5156-8.5781-1.5468-2.6485-1.0079-4.9688-2.461-6.961-4.3594-1.96871-1.8985-3.5273-4.1836-4.67574-6.8555-1.125-2.6719-1.6875-5.6601-1.6875-8.9648 0-3.0938.36328-5.8828 1.08985-8.3672.75-2.4844 1.74609-4.6758 2.98828-6.5742 1.24221-1.9219 2.66011-3.5743 4.25391-4.9571 1.5937-1.3828 3.2578-2.5312 4.9922-3.4453 1.3125-.7031 2.6133-1.2773 3.9023-1.7226 1.3125-.4453 2.5781-.7969 3.7969-1.0547 1.2188-.2578 2.3555-.4336 3.4102-.5274 1.0781-.0937 2.0507-.1406 2.9179-.1406ZM88.25 68.9297c.5625-1.3594.8438-2.8945.8438-4.6055 0-1.9688-.293-21.7383-1.0196-23.0273-.7031-1.3125-1.6172-2.3672-2.7422-3.1641-1.1015-.7969-2.3203-1.3594-3.6562-1.6875-1.336-.3281-2.625-.4922-3.8672-.4922-1.2656 0-2.5781.1875-3.9375.5625-1.3594.3516-2.6953.9024-4.0078 1.6524-1.3125.75-2.5547 1.6992-3.7266 2.8476-1.1719 1.1485-2.2031 2.4961-3.0937 4.043-.8907 1.5469-1.5938 3.3047-2.1094 5.2734-.5156 1.9688-.7734 4.1602-.7734 6.5742 0 2.6719.375 5.1329 1.125 7.3829.75 2.2265 1.8398 4.1484 3.2695 5.7656 1.4297 1.6172 3.1875 2.8828 5.2734 3.7969 2.1094.8906 4.5 1.3359 7.1719 1.3359 1.8516 0 3.5156-.2461 4.9922-.7383 1.5-.4922 2.7773-1.1953 3.832-2.1094 1.0547-.9375 1.8633-2.0742 2.4258-3.4101ZM93.0312 49.3125c-.8203 2.1094-1.2304 4.4766-1.2304 7.1016 0 2.6015.4687 4.9336 1.4062 6.9961.961 2.039 2.2266 3.7617 3.7969 5.1679 1.5703 1.4063 3.3751 2.4844 5.4141 3.2344 2.062.7266 4.207 1.0898 6.434 1.0898 1.851 0 3.738-.3164 5.66-.9492 1.922-.6562 3.656-1.6758 5.203-3.0586 1.57-1.3828 2.847-3.1523 3.832-5.3086 1.008-2.1562 1.512-4.7461 1.512-7.7695 0-2.5547-.411-4.8516-1.231-6.8906-.797-2.0625-1.91-3.8086-3.34-5.2383-1.429-1.4531-3.129-2.5664-5.097-3.3398-1.946-.7735-4.219-1.1602-6.539-1.1602-2.578 0-4.933.4102-7.066 1.2305-2.1096.7968-3.7743 1.9453-5.2743 3.4453s-2.6601 3.3164-3.4805 5.4492ZM138.734 34.3359c.024-.5156.036-.914.036-1.1953 0-.2109-.036-.4336-.106-.6679-.07-.2344-.258-.3516-.562-.3516-.329 0-.633.293-.914.8789-.399.8203-.915 1.6055-1.547 2.3555-.61.7265-1.196 1.3125-1.758 1.7578-.914.6797-1.852 1.1484-2.813 1.4062-.937.2578-1.992.4571-3.164.5977-.304.0469-.562.1289-.773.2461-.211.1172-.317.3047-.317.5625 0 .1875.047.3398.141.457.117.1172.258.211.422.2813.164.0468.328.082.492.1054h1.899c.398 0 .761.0352 1.089.1055.352.0469.657.1758.914.3867.258.211.481.5274.668.9492.188.3985.329.9493.422 1.6524.071.5859.153 1.3711.246 2.3555.118.9843.235 2.1093.352 3.375.117 1.2421.234 2.5781.351 4.0078.141 1.4296.27 2.8711.387 4.3242.117 1.4297.223 2.8359.317 4.2187.117 1.3594.211 2.6133.281 3.7617.094 1.1485.164 2.1446.211 2.9883.047.8203.07 1.4063.07 1.7578 0 1.125-.152 1.9688-.457 2.5313-.281.5391-.797.9726-1.547 1.3008-.75.3281-1.406.5625-1.969.7031-.539.1172-1.007.2344-1.406.3516-.515.164-.926.3281-1.23.4921-.281.1407-.422.3868-.422.7383 0 .211.082.4102.246.5977.164.1875.469.2812.914.2812.422 0 .984-.082 1.688-.2461.703-.164 1.511-.3515 2.425-.5625.914-.2343 1.91-.4687 2.989-.7031 1.078-.2578 2.191-.457 3.339-.5976 1.032-.1172 2.098-.1993 3.2-.2461 1.101-.0469 2.121-.0821 3.058-.1055.961-.0234 1.793-.0469 2.496-.0703.727-.0234 1.231-.0938 1.512-.211.352-.1171.527-.3632.527-.7382 0-.4688-.316-.7032-.949-.7032-.211 0-.539.0118-.984.0352-.422.0234-.832.0352-1.231.0352-.914 0-1.652-.1993-2.215-.5977-.539-.4219 10.63-5.3829 10.372-6.4375 1.406-2.0938 0-10 0-10 .843.6328-3.024-12.707-1.688-12.707.727 0 1.442-.1524 2.145-.4571.703-.3281 1.324-.7968 1.863-1.4062.562-.6094 1.008-1.3711 1.336-2.2852.328-.9375.492-2.0273.492-3.2695 0-.7969-.129-1.6406-.387-2.5312-.257-.9141-.691-1.7579-1.3-2.5313-.61-.7734-1.43-1.418-2.461-1.9336-1.008-.5156-2.262-.7734-3.762-.7734-1.617 0-3.024.3398-4.219 1.0195-1.172.6797-2.18 1.5352-3.023 2.5664-.844 1.0313-1.535 2.1445-2.075 3.3398-.539 1.1719-.984 2.2735-1.335 3.3047-.329 1.0313-.586 1.8868-.774 2.5664-.164.6797-.293 1.0196-.387 1.0196-.093 0-.211-.211-.351-.6328-.117-.4453-.246-.9844-.387-1.6172-.117-.6563-.223-1.3594-.316-2.1094-.071-.7734-.106-1.5-.106-2.1797 0-.539.012-1.0547.035-1.5469Z"/><path fill="#C4E2FE" d="M191.926 35.8828c-.961-.375-2.039-.5625-3.235-.5625-1.336 0-2.507.1875-3.515.5625-.985.3516-1.852.832-2.602 1.4414-.75.586-1.406 1.2539-1.969 2.0039-.562.75-1.078 1.5-1.546 2.25-.329.5391-.692.8907-1.09 1.0547-.375.1641-.856.2461-1.442.2461-.281 0-.656-.0234-1.125-.0703-.445-.0703-.937-.1406-1.476-.2109-.539-.0938-1.114-.1641-1.723-.211-.609-.0703-1.207-.1055-1.793-.1055-1.969 0-3.808.3047-5.519.9141-1.711.5859-3.2 1.4531-4.465 2.6016-1.266 1.125-2.274 2.5078-3.024 4.1484-.726 1.6406-1.09 3.5039-1.09 5.5899 0 1.6875.235 3.1992.704 4.5351.492 1.3359 1.16 2.4961 2.004 3.4805.843.9844 1.839 1.8164 2.988 2.4961 1.148.6562 2.39 1.1601 3.726 1.5117-1.804.4453-3.211 1.0781-4.218 1.8984-.985.7969-1.477 1.7696-1.477 2.918 0 .8672.211 1.6172.633 2.25.422.6094.961 1.1133 1.617 1.5117.68.3985 1.43.7149 2.25.9492.844.2344 1.676.3985 2.496.4922-.492.1875-1.183.4688-2.074.8438-.891.375-1.863.8554-2.918 1.4414-1.031.5859-2.098 1.289-3.199 2.1094-1.078.8203-2.063 1.7695-2.953 2.8476-.868 1.1016-1.582 2.3438-2.145 3.7266-.562 1.3828-.844 2.9297-.844 4.6406 0 2.0859.422 3.9023 1.266 5.4492.844 1.5473 1.992 2.8243 3.445 3.8323 1.477 1.031 3.199 1.793 5.168 2.285 1.969.492 4.078.738 6.328.738 2.414 0 4.735-.222 6.961-.668 2.227-.445 4.278-1.101 6.153-1.969 1.429-.656 2.765-1.441 4.007-2.355 1.243-.9141 2.321-1.9336 3.235-3.0586.914-1.1016 1.629-2.3203 2.144-3.6562.516-1.3125.774-2.7305.774-4.254 0-1.9453-.352-3.5976-1.055-4.957s-1.64-2.4961-2.812-3.4101c-1.149-.8907-2.485-1.6055-4.008-2.1446-1.5-.539-3.059-.9726-4.676-1.3007-.961-.1876-2.004-.3516-3.129-.4922-1.101-.1407-2.215-.2813-3.34-.4219-1.101-.1641-2.168-.3399-3.199-.5274-1.031-.2109-1.945-.4804-2.742-.8085-.774-.3516-1.395-.7735-1.863-1.2657-.469-.4922-.704-1.1015-.704-1.8281 0-1.125.469-2.0391 1.407-2.7422.961-.7031 2.203-1.1836 3.726-1.4414h1.371c1.196 0 2.403-.082 3.621-.2461 1.243-.1641 2.426-.4453 3.551-.8437 1.149-.3985 2.215-.9258 3.199-1.5821.985-.6797 1.84-1.5234 2.567-2.5312.75-1.0313 1.336-2.2383 1.758-3.6211.422-1.4063.633-3.0469.633-4.9219 0-1.6875-.305-3.1523-.915-4.3945-.609-1.2422-1.289-2.2735-2.039-3.0938-.422-.4687-.855-.8789-1.3-1.2304-.422-.375-.809-.7032-1.161-.9844-.328-.2813-.597-.5274-.808-.7383-.211-.2344-.317-.4453-.317-.6328 0-.3281.071-.7031.211-1.125.164-.4453.352-.8672.563-1.2656.516-.8907 1.172-1.6055 1.969-2.1446.82-.539 1.629-.8086 2.425-.8086.61 0 1.149.1524 1.618.4571.468.3047.703.8554.703 1.6523 0 .586-.106 1.1836-.317 1.793-.187.5859-.281 1.2539-.281 2.0039 0 .6797.117 1.2891.352 1.8281.234.5391.55.9961.949 1.3711.398.375.867.6563 1.406.8438.539.1875 1.125.2812 1.758.2812 1.523 0 2.73-.5156 3.621-1.5469.914-1.0547 1.371-2.5312 1.371-4.4297 0-.9609-.187-1.8632-.562-2.707-.352-.8437-.868-1.582-1.547-2.2148-.68-.6328-1.5-1.125-2.461-1.4766ZM207.395 21.6094c1.382 0 2.484.3633 3.304 1.0898.821.7266 1.231 1.7578 1.231 3.0938 0 .8906-.141 1.6406-.422 2.25-.281.5859-.645 1.0664-1.09 1.4414-.445.3515-.938.6094-1.477.7734-.515.1406-1.031.211-1.546.211-.446 0-.915-.0704-1.407-.211s-.949-.375-1.371-.7031c-.422-.3516-.773-.7969-1.055-1.3359-.257-.5626-.386-1.254-.386-2.0743 0-.8672.14-1.582.422-2.1445.281-.5859.632-1.0547 1.054-1.4062.422-.3516.879-.5977 1.371-.7383.493-.1641.95-.2461 1.372-.2461Zm4.992 11.5312c.234 0 .351.2696.351.8086 0 .3516-.047.9375-.14 1.7578-.071.7969-.164 1.6524-.282 2.5664-.187 1.4532-.375 3.0704-.562 4.8516-.188 1.7578-.375 3.5742-.563 5.4492-.164 1.8516-.328 3.6914-.492 5.5196-.14 1.8281-.269 3.5273-.387 5.0976-.117 1.5469-.21 2.918-.281 4.1133-.07 1.1719-.105 2.0391-.105 2.6015 0 .7266.047 1.3243.14 1.793.094.4688.211.8555.352 1.1602.141.3047.293.5508.457.7383.187.1875.375.3515.563.4921.21.1407.468.2696.773.3868.305.1172.633.2343.984.3515.352.0938.703.1758 1.055.2461.375.0703.715.1172 1.02.1406.492.0938.89.1641 1.195.211.305.0469.457.1992.457.457 0 .4688-.504.7031-1.512.7031-.703 0-1.406-.0468-2.109-.1406-.703-.1172-1.43-.2461-2.18-.3867-.726-.1406-1.488-.2578-2.285-.3516-.797-.1172-1.652-.1758-2.566-.1758-.844 0-1.606.0235-2.286.0704-.679.0468-1.3.1054-1.863.1757-.562.0704-1.09.1289-1.582.1758-.492.0469-.984.0703-1.477.0703-.398 0-.761-.0468-1.089-.1406-.328-.1172-.493-.3398-.493-.668 0-.3281.176-.5507.528-.6679.375-.1407.75-.2461 1.125-.3164.469-.0938.926-.1993 1.371-.3164.445-.1172.844-.293 1.195-.5274.375-.2578.68-.5859.914-.9844.258-.4218.422-.9609.492-1.6171.094-1.2891.165-2.6016.211-3.9375.047-1.336.082-2.6485.106-3.9375.023-1.3125.035-2.5782.035-3.7969v-6.9961c0-1.0781-.023-1.9922-.07-2.7422-.047-1.1953-.188-2.1328-.422-2.8125-.211-.6797-.527-1.1836-.949-1.5117-.399-.3281-.914-.5391-1.547-.6328-.633-.1172-1.395-.211-2.285-.2813-.258-.0469-.469-.1289-.633-.2461-.141-.1172-.211-.3047-.211-.5625 0-.4453.351-.7031 1.055-.7734.351-.0235.796-.0586 1.335-.1055.54-.0703 1.161-.164 1.864-.2812.726-.1172 1.511-.2813 2.355-.4922.844-.2344 1.735-.5508 2.672-.9492 1.031-.4219 1.875-.8438 2.531-1.2657.68-.4218 1.231-.7968 1.653-1.125.422-.3515.75-.6328.984-.8437.234-.2344.434-.3516.598-.3516ZM256.016 38.6953c.703.8906 1.183 2.1094 1.441 3.6563.258 1.664.481 3.5507.668 5.6601.187 2.1094.281 4.3242.281 6.6445 0 1.3126-.047 2.7305-.14 4.254-.071 1.5-.211 3-.422 4.5-.188 1.5-.457 2.9414-.809 4.3242-.351 1.3828-.808 2.6133-1.371 3.6914-.539 1.0547-1.184 1.8984-1.934 2.5312s-1.64.9492-2.671.9492c-1.172 0-2.25-.6679-3.235-2.0039-.281-.3984-.597-.8203-.949-1.2656-.352-.4453-.75-.8437-1.195-1.1953-.422-.375-.914-.6797-1.477-.9141-.539-.2578-1.16-.3867-1.863-.3867-.891 0-1.641.1641-2.25.4922-.61.3047-1.113.7149-1.512 1.2305-.398.4922-.691 1.0664-.879 1.7226-.164.6563-.246 1.3125-.246 1.9688 0 .9375.164 1.8398.492 2.707.352.8438.856 1.5938 1.512 2.25.68.6797 1.5 1.2188 2.461 1.6172.961.3984 2.062.5977 3.305.5977 2.132 0 3.996-.4102 5.589-1.2305 1.618-.7969 3.012-1.875 4.184-3.2344 1.172-1.3594 2.133-2.9179 2.883-4.6758.773-1.7578 1.383-3.5859 1.828-5.4843.445-1.9219.762-3.8321.949-5.7305.188-1.9219.282-3.7031.282-5.3438 0-1.8281-.047-3.7265-.141-5.6953-.07-1.9922-.223-4.125-.457-6.3984-.047-.4922-.106-1.0547-.176-1.6875-.07-.6563-.105-1.1719-.105-1.5469s.093-.5625.281-.5625c.14 0 .281.0703.422.211.14.1171.304.3164.492.5976.211.2813.457.668.738 1.1602.281.4687.621 1.0547 1.02 1.7578.187.3515.55 1.0195 1.09 2.0039.539.9609 1.183 2.1211 1.933 3.4805.774 1.3359 1.594 2.8007 2.461 4.3945.891 1.5937 1.781 3.1875 2.672 4.7812.914 1.5704 1.781 3.0821 2.602 4.5352.82 1.4297 1.535 2.6719 2.144 3.7266.164.3046.363.6445.598 1.0195.258.375.504.7265.738 1.0547.234.3281.457.6094.668.8437.234.211.422.3164.562.3164.165 0 .364-.1289.598-.3867.234-.2812.481-.6211.738-1.0195.282-.4219.551-.8789.809-1.3711.258-.4922.504-.961.738-1.4063.117-.1875.364-.6679.739-1.4414.375-.7968.843-1.7695 1.406-2.9179.562-1.1719 1.183-2.461 1.863-3.8672.68-1.4063 1.359-2.8242 2.039-4.2539.703-1.4297 1.395-2.8243 2.074-4.1836.68-1.3594 1.289-2.5664 1.828-3.6211.54-1.0547.985-1.8985 1.336-2.5313.375-.6328.598-.9492.668-.9492.047 0 .176.375.387 1.125.235.75.504 1.7461.809 2.9883.304 1.2422.644 2.6836 1.019 4.3242.399 1.6172.785 3.3047 1.16 5.0625.399 1.7578.774 3.5156 1.125 5.2735.375 1.7578.704 3.3984.985 4.9218.281 1.5235.504 2.8594.668 4.0078.187 1.1485.281 1.9922.281 2.5313 0 .9375-.188 1.7109-.562 2.3203-.352.5859-.938 1.0664-1.758 1.4414-.797.3516-1.606.6328-2.426.8438-.82.2109-1.57.4218-2.25.6328-.656.1875-1.195.3867-1.617.5976-.422.2344-.633.5274-.633.8789 0 .3282.129.5391.387.6328.257.0938.515.1407.773.1407.961 0 2.016-.1524 3.164-.4571 1.149-.3047 2.426-.6445 3.832-1.0195 1.43-.375 3-.7148 4.711-1.0195 1.734-.3047 3.645-.4571 5.731-.4571 1.289 0 2.46.0352 3.515.1055 1.078.0703 2.11.1055 3.094.1055.82 0 1.418-.1055 1.793-.3164.398-.211.598-.4805.598-.8086 0-.3047-.141-.5625-.422-.7735-.282-.2109-.797-.4101-1.547-.5976-.774-.2109-1.477-.4219-2.11-.6328-.609-.211-1.183-.4571-1.722-.7383-.516-.2813-.996-.6211-1.442-1.0195-.421-.3985-.843-.8789-1.265-1.4414-.446-.586 9.898-38.5508 9.406-39.7227 1.524-.5391-12.699-3.3086-11.48-3.5195 1.242-.2344 2.203-.4571 2.882-.668.703-.2109 1.055-.5273 1.055-.9492 0-.1875-.082-.3516-.246-.4922-.141-.1406-.457-.2109-.949-.2109-.328 0-.68.0351-1.055.1054-.375.0469-.797.1055-1.266.1758-.445.0703-.961.1406-1.546.2109-.586.0469-1.243.0704-1.969.0704-1.196 0-2.168-.0118-2.918-.0352-.75-.0234-1.336-.0352-1.758-.0352h-.457c-.117 0-.234.0235-.352.0704-.187.0468-.457.3632-.808.9492-.352.5625-.762 1.3125-1.231 2.25-.445.9375-.937 2.0156-1.476 3.2343-.539 1.2188-1.114 2.4961-1.723 3.8321-.586 1.3125-1.195 2.6484-1.828 4.0078-.609 1.3359-1.207 2.6016-1.793 3.7969-2.133 4.3125-3.785 7.5586-4.957 9.7382-1.148 2.1563-1.922 3.2344-2.32 3.2344-.188 0-.551-.2929-1.09-.8789-.516-.5859-1.149-1.3594-1.899-2.3203-.726-.9609-1.546-2.0625-2.461-3.3047-.89-1.2422-1.816-2.5195-2.777-3.832-.937-1.3359-1.887-2.6485-2.848-3.9375-.96-1.2891-1.875-2.461-2.742-3.5156-.843-1.0547-1.617-1.9454-2.32-2.6719-.68-.7266-1.23-1.1836-1.652-1.3711-.282-.1172-.598-.1875-.95-.2109-.351-.0469-.785-.0704-1.3-.0704-.493-.0234-1.102-.0351-1.828-.0351-.727-.0234-1.618-.082-2.672-.1758-1.149-.0937-2.11-.2109-2.883-.3516-.774-.164-1.442-.3046-2.004-.4218-.563-.1172-1.043-.2227-1.441-.3164-.399-.0938-.809-.1407-1.231-.1407-.914 0-1.371.3399-1.371 1.0196 0 .3281.105.5859.316.7734.211.1875.539.3633.985.5273.422.1407.914.293 1.476.4571.586.164 1.172.4101 1.758.7383.727.3984 1.441 1.0546 2.145 1.9687Z"/><path fill="#C4E2FE" d="M325.066 21.6094c1.383 0 2.485.3633 3.305 1.0898.82.7266 1.231 1.7578 1.231 3.0938 0 .8906-.141 1.6406-.422 2.25-.282.5859-.645 1.0664-1.09 1.4414-.445.3515-.938.6094-1.477.7734-.515.1406-1.031.211-1.547.211-.445 0-.914-.0704-1.406-.211-.492-.1406-.949-.375-1.371-.7031-.422-.3516-.773-.7969-1.055-1.3359-.257-.5626-.386-1.254-.386-2.0743 0-.8672.14-1.582.422-2.1445.281-.5859.632-1.0547 1.054-1.4062.422-.3516.879-.5977 1.371-.7383.493-.1641.95-.2461 1.371-.2461Zm4.993 11.5312c.234 0 .351.2696.351.8086 0 .3516-.047.9375-.14 1.7578-.071.7969-.165 1.6524-.282 2.5664-.187 1.4532-.375 3.0704-.562 4.8516-.188 1.7578-.375 3.5742-.563 5.4492-.164 1.8516-.328 3.6914-.492 5.5196-.141 1.8281-.269 3.5273-.387 5.0976-.117 1.5469-.211 2.918-.281 4.1133-.07 1.1719-.105 2.0391-.105 2.6015 0 .7266.047 1.3243.14 1.793.094.4688.211.8555.352 1.1602.14.3047.293.5508.457.7383.187.1875.375.3515.562.4921.211.1407.469.2696.774.3868.305.1172.633.2343.984.3515.352.0938.703.1758 1.055.2461.375.0703.715.1172 1.019.1406.493.0938.891.1641 1.196.211.304.0469.457.1992.457.457 0 .4688-.504.7031-1.512.7031-.703 0-1.406-.0468-2.109-.1406-.703-.1172-1.43-.2461-2.18-.3867-.727-.1406-1.488-.2578-2.285-.3516-.797-.1172-1.653-.1758-2.567-.1758-.843 0-1.605.0235-2.285.0704-.679.0468-1.301.1054-1.863.1757-.563.0704-1.09.1289-1.582.1758-.492.0469-.984.0703-1.477.0703-.398 0-.761-.0468-1.089-.1406-.329-.1172-.493-.3398-.493-.668 0-.3281.176-.5507.528-.6679.375-.1407.75-.2461 1.125-.3164.468-.0938.925-.1993 1.371-.3164.445-.1172.844-.293 1.195-.5274.375-.2578.68-.5859.914-.9844.258-.4218.422-.9609.492-1.6171.094-1.2891.164-2.6016.211-3.9375.047-1.336.082-2.6485.106-3.9375.023-1.3125.035-2.5782.035-3.7969v-6.9961c0-1.0781-.024-1.9922-.07-2.7422-.047-1.1953-.188-2.1328-.422-2.8125-.211-.6797-.528-1.1836-.949-1.5117-.399-.3281-.915-.5391-1.547-.6328-.633-.1172-1.395-.211-2.286-.2813-.257-.0469-.468-.1289-.632-.2461-.141-.1172-.211-.3047-.211-.5625 0-.4453.351-.7031 1.054-.7734.352-.0235.797-.0586 1.336-.1055.539-.0703 1.16-.164 1.864-.2812.726-.1172 1.511-.2813 2.355-.4922.844-.2344 1.734-.5508 2.672-.9492 1.031-.4219 1.875-.8438 2.531-1.2657.68-.4218 1.231-.7968 1.653-1.125.421-.3515.75-.6328.984-.8437.234-.2344.434-.3516.598-.3516ZM345.914 32.7188c.188 0 .375.3046.563.914.187.586.375 1.3594.562 2.3203.188.961.375 2.0742.563 3.3399.187 1.2422.375 2.5078.562 3.7968l1.266 8.8594c.117-.7734.316-1.664.597-2.6719.305-1.0078.703-2.0507 1.196-3.1289.492-1.0781 1.089-2.1328 1.793-3.164.703-1.0313 1.511-1.9571 2.425-2.7774.938-.8203 1.981-1.4765 3.129-1.9687 1.172-.5156 2.473-.7735 3.903-.7735 1.757 0 3.281.3399 4.57 1.0196 1.289.6562 2.355 1.582 3.199 2.7773.844 1.1719 1.465 2.5781 1.863 4.2188.399 1.6406.598 3.4336.598 5.3789 0 1.7578-.105 3.5273-.316 5.3086-.188 1.7578-.399 3.4922-.633 5.2031-.211 1.7109-.422 3.3633-.633 4.957-.187 1.5938-.281 3.0821-.281 4.4649 0 .8203.07 1.5351.211 2.1445.14.6094.351 1.1719.633 1.6875.328.4922.726.9258 1.195 1.3008.492.3515.949.6914 1.371 1.0195.445.3047.82.6211 1.125.9492.328.3047.492.6328.492.9844 0 .2109-.058.3867-.176.5273-.117.1641-.316.2461-.597.2461-.422 0-.891-.164-1.406-.4921-.493-.3047-1.114-.6914-1.864-1.1602-.726-.4922-1.605-1.0078-2.636-1.5469-1.032-.5625-2.286-1.0781-3.762-1.5469-1.102-.375-2.215-.6679-3.34-.8789-1.102-.2109-2.391-.3515-3.867-.4218-.821-.0703-1.231-.3047-1.231-.7032 0-.1837.046-.3294.138-.4373-1.662-.1213-5.807-1.5102-5.622-.8986.234.7734.504 1.3828.808 1.8281.446.6094.926 1.0664 1.442 1.3711.516.3047.949.5156 1.301.6328.468.1407.797.2696.984.3868.211.0937.316.2343.316.4218 0 .1407-.117.2696-.351.3868-.211.1171-.574.1757-1.09.1757-.492 0-1.031-.0351-1.617-.1054-.586-.0938-1.195-.1875-1.828-.2813-.633-.0937-1.289-.1758-1.969-.2461-.68-.0937-1.348-.1406-2.004-.1406-.656 0-1.324.0234-2.004.0703-.68.0469-1.336.0938-1.969.1406-.609.0469-1.171.0938-1.687.1407-.516.0468-.926.0703-1.231.0703-.914 0-1.371-.293-1.371-.8789 0-.211.071-.3868.211-.5274.164-.164.446-.2695.844-.3164.328-.0234.621-.0469.879-.0703.258-.0234.516-.0352.773-.0352l.844-.0703c.305-.0234.656-.0586 1.055-.1054.75-.1172 1.254-.3868 1.512-.8086.281-.4453.421-1.043.421-1.793 0-1.2891-.117-2.8594-.351-4.7109C345.211 65.25 337.375 68.2265 337 66c-.375-2.2266-1.938-13.5157-2.477-16-.516-2.5078 7.582-1.1445 6.997-3.7461-.282-1.3359-.61-2.332-.985-2.9883-.351-.6562-.867-.9844-1.547-.9844-.351 0-.715.0704-1.09.211-.375.1172-.75.2578-1.125.4219-.351.1406-.691.2812-1.019.4218-.328.1172-.633.1758-.914.1758-.445 0-.668-.1875-.668-.5625 0-.3047.117-.5156.351-.6328.258-.1406.528-.2695.809-.3867.656-.2578 1.359-.5859 2.109-.9844.774-.3984 1.606-.9375 2.497-1.6172.867-.6797 1.64-1.4062 2.32-2.1797.68-.7734 1.265-1.4882 1.758-2.1445.492-.6562.89-1.1953 1.195-1.6172.305-.4453.539-.6679.703-.6679Z"/><path fill="#C4E2FE" fill-rule="evenodd" d="M378.873 71.1372c1.444 1.0348 2.83 2.0273 2.83 2.6792 0-1.3594-.012-2.8476-.035-4.4648 0-1.6407-.023-3.3282-.07-5.0625.024.8812-1.51 1.4013-3.026 1.9151-1.467.4974-2.916.9887-2.916 1.7958.012.8416 1.649 2.0144 3.217 3.1372Z" clip-rule="evenodd"/><path fill="#C4E2FE" d="M382.125 85.9805c1.242-.0938 2.461-.1407 3.656-.1407 1.571 0 2.907.0235 4.008.0704 1.125.0703 2.098.1406 2.918.2109.844.0937 1.582.1641 2.215.2109.656.0703 1.312.1055 1.969.1055 1.289 0 2.144-.1641 2.566-.4922.445-.3047.668-.668.668-1.0898 0-.2813-.082-.5039-.246-.668-.141-.1641-.328-.293-.563-.3867-.234-.0938-.504-.1641-.808-.211-.305-.0234-.61-.0351-.914-.0351-.422 0-.867.0117-1.336.0351-.446.0235-.867.0352-1.266.0352-.89 0-1.629-.1172-2.215-.3516-.586-.2109-1.066-.5273-1.441-.9492-.375-.4219-.68-.9375-.914-1.5469-.188-.5443-.349-1.154-.481-1.8293 1.901.7236 8.325-4.7247 9.903-3.7605 1.711 1.0078 3.656 1.5117 5.836 1.5117 1.617 0 2.941-.3164 3.972-.9492 1.032-.6328 1.828-1.3945 2.391-2.2852.586-.914.984-1.8632 1.195-2.8476.235-.9844.352-1.8399.352-2.5664 0-1.0078-.106-1.9219-.317-2.7422-.187-.8438-.457-1.6055-.808-2.2852-.328-.6796-.715-1.2773-1.16-1.7929-.422-.5391-.867-.9961-1.336-1.3711-.422-.375-.891-.7032-1.407-.9844-.492-.3047-.878-.457-1.16-.457-.257 0-.386.0937-.386.2812 0 .1406.14.3281.422.5625.304.211.597.4571.878.7383.375.3516.739.7617 1.09 1.2305.352.4453.656.9375.914 1.4765-1.125-.8203-1.991 1.2422-2.882 0s-1.687-2.6133-2.391-4.1133c-.679-1.5234.856-.8437.387-2.2499-.469-1.4297 1.347-2.7188 1.066-3.8438-.258-1.1484 4.875-1.5116 4.805-2.0273.328-.4922-15.938.539-15.469 0 .469-.5625.949-1.1016 1.441-1.6172.516-.5391 1.02-1.0313 1.512-1.4766.516-.4687.961-.8437 1.336-1.125.609-.4687 1.207-.8437 1.793-1.125.586-.2812 1.172-.4922 1.758-.6328.586-.1406 1.172-.2344 1.758-.2813.609-.0468 1.218-.0703 1.828-.0703.633 0 1.078-.082 1.336-.2461.257-.1875.386-.4101.386-.6679 0-.3282-.14-.5508-.422-.668-.281-.1406-.667-.2109-1.16-.2109-.422 0-.949-.0118-1.582-.0352-.609-.0469-1.242-.0937-1.898-.1406-.656-.0703-1.301-.1406-1.934-.211-.609-.0703-1.136-.1523-1.582-.246-1.148-.2344-2.121-.504-2.918-.8086-.797-.3047-1.476-.586-2.039-.8438-.562-.2578-1.019-.4805-1.371-.668-.351-.1875-.668-.2812-.949-.2812-.328 0-.551.0937-.668.2812-.117.1641-.176.3633-.176.5977 0 .3984.235.7266.703.9844l2.883 1.3711c1.008.5156 1.512 1.2422 1.512 2.1796 0 .3985-.094.8204-.281 1.2657-.188.4453-.481.9375-.879 1.4765-.703.8907-1.36 1.6875-1.969 2.3907-.586.6797-1.184 1.3593-1.793 2.039-.609.6563-1.277 1.3477-2.004 2.0742-.727.7266-1.559 1.5821-2.496 2.5665-.047-.3985-.106-1.1954-.176-2.3907-.07-1.2187-.152-2.6953-.246-4.4297-.07-1.7578-.152-3.7031-.246-5.8359-.07-2.1563-.152-4.3711-.246-6.6445-.07-2.2735-.141-4.5469-.211-6.8203-.07-2.2735-.141-4.4063-.211-6.3985-.047-2.0156-.094-3.8203-.141-5.414-.023-1.5938-.035-2.8477-.035-3.7618 0-.5859.012-1.2422.035-1.9687.024-.75.047-1.4883.071-2.2149.023-.72652.047-1.39449.07-2.00386.023-.63282.035-1.13672.035-1.51172 0-.32813-.058-.64453-.176-.94922-.093-.32812-.304-.49219-.632-.49219-.258 0-.54.15235-.844.45703-.281.28125-.633.64454-1.055 1.08985-.398.44531-.891.94922-1.476 1.51172-.563.5625-1.254 1.10156-2.075 1.61719-.75.4687-1.511.8789-2.285 1.2305-.75.3515-1.558.6797-2.426.9843-.867.2813-1.804.5508-2.812.8086-1.031.2578-2.156.5157-3.375.7735-.281.0703-.527.1875-.738.3515-.211.1641-.317.3868-.317.668 0 .3281.141.5742.422.7383.258.1406.691.2109 1.301.2109.75 0 1.582-.0586 2.496-.1758.914-.1406 1.781-.2109 2.602-.2109.562 0 1.113.0586 1.652.1758.562.0937 1.066.3047 1.512.6328.468.3047.878.75 1.23 1.3359.352.586.598 1.3594.738 2.3203.094.6797.176 1.5938.246 2.7422.071 1.125.129 2.4024.176 3.8321.071 1.4296.117 2.9648.141 4.6054.047 1.6407.082 3.293.105 4.9571.047 1.6406.082 3.2578.106 4.8515.023 1.5938.047 3.0703.07 4.4297.024 1.0781.047 2.3438.07 3.7969.047 1.4297.082 2.9766.106 4.6406.047 1.6406.082 3.3516.105 5.1328.024 1.7578.047 3.5156.071 5.2735.047 1.7343.07 3.4218.07 5.0625.023 1.6172.035 3.1054.035 4.4648 0 .9844-.023 2.0156-.07 3.0938-.047 1.0781-.199 2.0976-.457 3.0586-.258.9609-.68 1.8281-1.266 2.6015-.586.7735-1.406 1.3594-2.461 1.7578-.515.1875-1.113.3516-1.793.4922-.679.1641-1.523.2461-2.531.2461-.82 0-1.23.2813-1.23.8438 0 .2578.093.4687.281.6328.164.164.48.2461.949.2461.609 0 1.383-.0469 2.32-.1407.938-.0937 1.969-.2109 3.094-.3515 1.149-.1172 2.344-.2227 3.586-.3164ZM415.84 56.4141s.41-4.9922 1.23-7.1016c.821-2.1328 1.981-3.9492 3.481-5.4492 1.5-1.5 3.304-2.6485 5.414-3.4453 2.133-.8203 4.488-1.2305 7.066-1.2305 2.321 0 4.453.3867 6.399 1.1602 1.968.7734 3.668 1.8867 5.097 3.3398 1.43 1.4297 2.543 3.1758 3.34 5.2383.821 2.039 1.231 4.3359 1.231 6.8906 0 3.0234-.504 5.6133-1.512 7.7695-.984 2.1563-2.262 3.9258-3.832 5.3086-1.547 1.3828-3.281 2.4024-5.203 3.0586-1.922.6328-3.809.9492-5.66.9492-2.227 0-4.371-.3632-6.434-1.0898-2.039-.75-3.844-1.8281-5.414-3.2344-1.57-1.4062-2.836-3.1289-3.797-5.1679-.937-2.0625-1.406-6.9961-1.406-6.9961ZM467.414 37.0781c.211-.164.316-.375.316-.6328 0-.1875-.058-.3515-.175-.4922-.117-.1406-.317-.2109-.598-.2109-.375 0-.797.1055-1.266.3164-.468.2109-1.031.4922-1.687.8437-.656.3516-1.418.7618-2.285 1.2305-.844.4688-1.84.961-2.989 1.4766-.937.4218-1.921.832-2.953 1.2304-1.031.375-2.027.7266-2.988 1.0547-.937.3282-1.781.6211-2.531.8789-.75.2578-1.301.4805-1.653.668-.351.1641-.527.3984-.527.7031 0 .2578.082.4453.246.5625.188.1172.375.1758.563.1758.234 0 .515-.0586.843-.1758.352-.1172.704-.2461 1.055-.3867.375-.1641.762-.3047 1.16-.4219.399-.1172.774-.1757 1.125-.1757.305 0 .621.0351.95.1054.328.0703.644.211.949.4219.328.2109.644.5039.949.8789.305.375.598.8672.879 1.4766.351.75.832 1.7929 1.441 3.1289.633 1.3359 1.324 2.8594 2.074 4.5703.774 1.6875 1.594 3.4922 2.461 5.4141.891 1.9218 1.77 3.832 2.637 5.7304.891 1.8985 1.746 3.7149 2.567 5.4492.843 1.7344 1.617 3.2696 2.32 4.6055.703 1.3125 1.301 2.3672 1.793 3.1641.515.7968.89 1.1953 1.125 1.1953.211 0 .48-.3164.808-.9492.329-.6329.692-1.4414 1.09-2.4258.399-1.0078.797-2.1094 1.196-3.3047.421-1.1953.82-2.3555 1.195-3.4805.375-1.125.703-2.1328.984-3.0234.282-.9141.492-1.582.633-2.0039.609-1.9688 1.137-3.668 1.582-5.0977.445-1.4531.844-2.7422 1.195-3.8672.352-1.125.668-2.1211.95-2.9882.304-.8907.621-1.7579.949-2.6016.141-.3281.293-.6445.457-.9492.164-.3047.363-.586.598-.8438.234-.2578.527-.4804.878-.6679.352-.211.786-.375 1.301-.4922.422-.0938.832-.1758 1.231-.2461.422-.0703.797-.1524 1.125-.2461.328-.1172.597-.2344.808-.3516.211-.1406.317-.3047.317-.4922 0-.2578-.141-.4218-.422-.4922-.281-.0703-.598-.1054-.949-.1054-.352 0-.821.0468-1.407.1406-.562.0703-1.172.1641-1.828.2812-.633.0938-1.265.1876-1.898.2813-.633.0703-1.184.1055-1.653.1055-1.593 0-2.859-.0469-3.796-.1407-.938-.1171-1.594-.1757-1.969-.1757-.352 0-.692.0468-1.02.1406-.328.0703-.492.2695-.492.5976 0 .2813.152.4922.457.6329.305.1171.668.2109 1.09.2812.422.0703.855.1289 1.301.1758.469.0234.844.0703 1.125.1406.211.0469.41.1172.597.2109.188.0704.352.1876.493.3516.164.1406.281.3399.351.5977.094.2343.141.539.141.914C477.504 51.5 471.711 50.8984 471.5 52c-.539-1.5235-4.473-3.2851-4.895-4.6211-.422-1.3359-1.078-3.2812-1.335-4.3594-.235-1.0781-.352-1.9218-.352-2.5312 0-.6797.164-1.2188.492-1.6172.352-.4219.75-.7969 1.195-1.125.352-.2813.622-.5039.809-.668Z"/><path stroke="#C4E2FE" stroke-width="10" d="M45.2938 53.4501c.5254-.2572 2.6643-5.0298 2.9835-5.5087.3282-.4922.6329-1.1484.9141-1.9687.3516-.9844.668-1.8516.9492-2.6016.2813-.7734.5625-1.5117.8438-2.2149.2812-.7265.5742-1.4531.8789-2.1796.3281-.7266.7148-1.5469 1.1601-2.461.4454-.8906 1.0196-1.8633 1.7227-2.9179.7266-1.0547 1.4297-2.0743 2.1094-3.0586.6797-.9844 1.2656-1.8633 1.7578-2.6368.4922-.7734.7383-1.3359.7383-1.6875 0-.5625-.2578-.8437-.7735-.8437-.3047 0-.6093.1523-.914.457-.2813.2813-.586.6563-.9141 1.125-.3281.4453-.7031.961-1.125 1.5469-.3984.5859-.8789 1.1719-1.4414 1.7578-1.9922 2.0625-4.1016 3.0938-6.3281 3.0938-1.0782 0-2.1211-.1172-3.1289-.3516-1.0078-.2344-2.0977-.4922-3.2696-.7734-1.1484-.3047-2.4258-.5743-3.832-.8086-1.4062-.2344-3.0469-.3516-4.9219-.3516-.8672 0-1.8398.0469-2.9179.1406-1.0547.0938-2.1914.2696-3.4102.5274-1.2188.2578-2.4844.6094-3.7969 1.0547-1.289.4453-2.5898 1.0195-3.9023 1.7226-1.7344.9141-3.3985 2.0625-4.9922 3.4453-1.5938 1.3828-3.0117 3.0352-4.25391 4.9571-1.24219 1.8984-2.23828 4.0898-2.98828 6.5742-.72657 2.4844-1.08985 5.2734-1.08985 8.3672 0 3.3047.5625 6.2929 1.6875 8.9648 1.14844 2.6719 2.70703 4.957 4.67574 6.8555 1.9922 1.8984 4.3125 3.3515 6.961 4.3594 2.6719 1.0312 5.5312 1.5468 8.5781 1.5468 2.1328 0 4.0078-.1523 5.625-.457 1.6406-.3047 3.082-.6797 4.3242-1.125 1.2657-.4688 2.3672-.9727 3.3047-1.5117.9375-.5391 1.793-1.0313 2.5664-1.4766.7735-.4687 1.5-.8555 2.1797-1.1601.7031-.3047 1.418-.4571 2.1445-.4571.5625 0 1.1016.1055 1.6172.3164.5156.211.9961.4571 1.4414.7383.4688.2578.8789.4922 1.2305.7031.375.211.7031.3165.9844.3165.1875 0 .3281-.0704.4219-.211.0937-.164.1406-.375.1406-.6328 0-.3281-.0469-.7969-.1406-1.4062-.0704-.6329-.1641-1.2657-.2813-1.8985-.0703-.4687-.1641-1.1015-.2813-1.8984-.0937-.7969-.1874-1.6524-.2812-2.5664-.0703-.9375-.1406-1.8985-.2109-2.8828-.0703-.9844-.1055-1.8985-.1055-2.7422 0-1.6172.1758-2.836.5273-3.6563.375-.8203.9258-1.4531 1.6524-1.8984.3515-.211.6914-.3867 1.0195-.5274.3281-.1406.6094-.2695.8438-.3867.2578-.1406.457-.2812.5976-.4219.1406-.1406.211-.3164.211-.5273 0-.3984-.3164-.5977-.9493-.5977-.4687 0-.9843.0821-1.5468.2461-.5543.1387-7.9945-.2464-8.9953-.0108Zm0 0c-.0145.0071-.0279.0108-.0399.0108.0119-.0037.0252-.0073.0399-.0108ZM357.126 72.465c-.092.1079-.138.2536-.138.4373 0 .3985.41.6329 1.231.7032 1.476.0703 2.765.2109 3.867.4218 1.125.211 2.238.5039 3.34.8789 1.476.4688 2.73.9844 3.762 1.5469 1.031.5391 1.91 1.0547 2.636 1.5469.75.4688 1.371.8555 1.864 1.1602.515.3281.984.4921 1.406.4921.281 0 .48-.082.597-.2461.118-.1406.176-.3164.176-.5273 0-.3516-.164-.6797-.492-.9844-.305-.3281-.68-.6445-1.125-.9492-.422-.3281-.879-.668-1.371-1.0195-.469-.375-.867-.8086-1.195-1.3008-.282-.5156-.493-1.0781-.633-1.6875-.141-.6094-.211-1.3242-.211-2.1445 0-1.3828.094-2.8711.281-4.4649.211-1.5937.422-3.2461.633-4.957.234-1.7109.445-3.4453.633-5.2031.211-1.7813.316-3.5508.316-5.3086 0-1.9453-.199-3.7383-.598-5.3789-.398-1.6407-1.019-3.0469-1.863-4.2188-.844-1.1953-1.91-2.1211-3.199-2.7773-1.289-.6797-2.813-1.0196-4.57-1.0196-1.43 0-2.731.2579-3.903.7735-1.148.4922-2.191 1.1484-3.129 1.9687-.914.8203-1.722 1.7461-2.425 2.7774-.704 1.0312-1.301 2.0859-1.793 3.164-.493 1.0782-.891 2.1211-1.196 3.1289-.281 1.0079-.48 1.8985-.597 2.6719l-1.266-8.8594c-.187-1.289-.375-2.5546-.562-3.7968-.188-1.2657-.375-2.3789-.563-3.3399-.187-.9609-.375-1.7343-.562-2.3203-.188-.6094-.375-.914-.563-.914-.164 0-.398.2226-.703.6679-.305.4219-.703.961-1.195 1.6172-.493.6563-1.078 1.3711-1.758 2.1445-.68.7735-1.453 1.5-2.32 2.1797-.891.6797-1.723 1.2188-2.497 1.6172-.75.3985-1.453.7266-2.109.9844-.281.1172-.551.2461-.809.3867-.234.1172-.351.3281-.351.6328 0 .375.223.5625.668.5625.281 0 .586-.0586.914-.1758.328-.1406.668-.2812 1.019-.4218.375-.1641.75-.3047 1.125-.4219.375-.1406.739-.211 1.09-.211.68 0 1.196.3282 1.547.9844.375.6563.703 1.6524.985 2.9883m15.606 26.2111c.13-.1538.354-.2306.671-.2306m-.671.2306c.439.032.705-.0246.671-.2306m-.671.2306c-1.662-.1213-5.807-1.5102-5.622-.8986.234.7734.504 1.3828.808 1.8281.446.6094.926 1.0664 1.442 1.3711.516.3047.949.5156 1.301.6328.468.1407.797.2696.984.3868.211.0937.316.2343.316.4218 0 .1407-.117.2696-.351.3868-.211.1171-.574.1757-1.09.1757-.492 0-1.031-.0351-1.617-.1054-.586-.0938-1.195-.1875-1.828-.2813-.633-.0937-1.289-.1758-1.969-.2461-.68-.0937-1.348-.1406-2.004-.1406-.656 0-1.324.0234-2.004.0703-.68.0469-1.336.0938-1.969.1406-.609.0469-1.171.0938-1.687.1407-.516.0468-.926.0703-1.231.0703-.914 0-1.371-.293-1.371-.8789 0-.211.071-.3868.211-.5274.164-.164.446-.2695.844-.3164.328-.0234.621-.0469.879-.0703.258-.0234.516-.0352.773-.0352l.844-.0703c.305-.0234.656-.0586 1.055-.1054.75-.1172 1.254-.3868 1.512-.8086.281-.4453.421-1.043.421-1.793 0-1.2891-.117-2.8594-.351-4.7109m12.375 5.1328h1.371c.586 0 1.184-.0235 1.793-.0703.937-.0703 1.711-.3516 2.32-.8438.61-.5156 1.067-1.4531 1.371-2.8125.094-.539.188-1.2187.282-2.039.093-.8438.175-1.7344.246-2.6719.07-.961.129-1.9336.175-2.918.047-.9844.071-1.9219.071-2.8125 0-.7969-.012-1.7109-.035-2.7422-.024-1.0547-.106-2.1445-.246-3.2695-.118-1.125-.317-2.2266-.598-3.3047-.258-1.0781-.645-2.0391-1.16-2.8828-.516-.8438-1.172-1.5234-1.969-2.0391-.797-.539-1.77-.8086-2.918-.8086m-13.078 24.0821c-.211-1.8516-.504-3.8907-.879-6.1172m.879 6.1172C345.211 65.25 337.375 68.2265 337 66m7.543-5.0156c-.375-2.2266-.832-4.5821-1.371-7.0664m1.371 7.0664c-.129-.7634-1.283-2.0025-2.767-3.4015m1.396-3.6649c-.516-2.5078-1.067-5.0625-1.652-7.6641m1.652 7.6641c.177.8143-.466 2.1537-1.396 3.6649m-.256-11.329c.585 2.6016-7.513 1.2383-6.997 3.7461M337 66c-.252-1.4967 2.867-5.3181 4.776-8.4171M337 66c-.375-2.2266-1.938-13.5157-2.477-16m7.253 7.5829c-2.845-2.6815-6.899-5.9503-7.253-7.5829m47.18 23.8164c0 .9844-.023 2.0156-.07 3.0938-.047 1.0781-.199 2.0976-.457 3.0586-.258.9609-.68 1.8281-1.266 2.6015-.586.7735-1.406 1.3594-2.461 1.7578-.515.1875-1.113.3516-1.793.4922-.679.1641-1.523.2461-2.531.2461-.82 0-1.23.2813-1.23.8438 0 .2578.093.4687.281.6328.164.164.48.2461.949.2461.609 0 1.383-.0469 2.32-.1407.938-.0937 1.969-.2109 3.094-.3515 1.149-.1172 2.344-.2227 3.586-.3164 1.242-.0938 2.461-.1407 3.656-.1407 1.571 0 2.907.0235 4.008.0704 1.125.0703 2.098.1406 2.918.2109.844.0937 1.582.1641 2.215.2109.656.0703 1.312.1055 1.969.1055 1.289 0 2.144-.1641 2.566-.4922.445-.3047.668-.668.668-1.0898 0-.2813-.082-.5039-.246-.668-.141-.1641-.328-.293-.563-.3867-.234-.0938-.504-.1641-.808-.211-.305-.0234-.61-.0351-.914-.0351-.422 0-.867.0117-1.336.0351-.446.0235-.867.0352-1.266.0352-.89 0-1.629-.1172-2.215-.3516-.586-.2109-1.066-.5273-1.441-.9492-.375-.4219-.68-.9375-.914-1.5469-.188-.5443-.349-1.154-.481-1.8293m-8.238-5.1316c0-1.3594-.012-2.8476-.035-4.4648 0-1.6407-.023-3.3282-.07-5.0625m.105 9.5273c0-.6519-1.386-1.6444-2.83-2.6792-1.568-1.1228-3.205-2.2956-3.217-3.1372 0-.8071 1.449-1.2984 2.916-1.7958 1.516-.5138 3.05-1.0339 3.026-1.9151m0 0c-.024-1.7579-.047-3.5157-.071-5.2735-.023-1.7812-.058-3.4922-.105-5.1328-.024-1.664-.059-3.2109-.106-4.6406-.023-1.4531-.046-2.7188-.07-3.7969-.023-1.3594-.047-2.8359-.07-4.4297-.024-1.5937-.059-3.2109-.106-4.8515-.023-1.6641-.058-3.3164-.105-4.9571-.024-1.6406-.07-3.1758-.141-4.6054-.047-1.4297-.105-2.7071-.176-3.8321-.07-1.1484-.152-2.0625-.246-2.7422-.14-.9609-.386-1.7343-.738-2.3203-.352-.5859-.762-1.0312-1.23-1.3359-.446-.3281-.95-.5391-1.512-.6328-.539-.1172-1.09-.1758-1.652-.1758-.821 0-1.688.0703-2.602.2109-.914.1172-1.746.1758-2.496.1758-.61 0-1.043-.0703-1.301-.2109-.281-.1641-.422-.4102-.422-.7383 0-.2812.106-.5039.317-.668.211-.164.457-.2812.738-.3515 1.219-.2578 2.344-.5157 3.375-.7735 1.008-.2578 1.945-.5273 2.812-.8086.868-.3046 1.676-.6328 2.426-.9843.774-.3516 1.535-.7618 2.285-1.2305.821-.51563 1.512-1.05469 2.075-1.61719.585-.5625 1.078-1.06641 1.476-1.51172.422-.44531.774-.8086 1.055-1.08985.304-.30468.586-.45703.844-.45703.328 0 .539.16407.632.49219.118.30469.176.62109.176.94922 0 .375-.012.8789-.035 1.51172-.023.60937-.047 1.27734-.07 2.00386-.024.7266-.047 1.4649-.071 2.2149-.023.7265-.035 1.3828-.035 1.9687 0 .9141.012 2.168.035 3.7618.047 1.5937.094 3.3984.141 5.414.07 1.9922.141 4.125.211 6.3985.07 2.2734.141 4.5468.211 6.8203.094 2.2734.176 4.4882.246 6.6445.094 2.1328.176 4.0781.246 5.8359.094 1.7344.176 3.211.246 4.4297.07 1.1953.129 1.9922.176 2.3907.937-.9844 1.769-1.8399 2.496-2.5665.727-.7265 1.395-1.4179 2.004-2.0742.609-.6797 1.207-1.3593 1.793-2.039.609-.7032 1.266-1.5 1.969-2.3907.398-.539.691-1.0312.879-1.4765.187-.4453.281-.8672.281-1.2657 0-.9374-.504-1.664-1.512-2.1796l-2.883-1.3711c-.468-.2578-.703-.586-.703-.9844 0-.2344.059-.4336.176-.5977.117-.1875.34-.2812.668-.2812.281 0 .598.0937.949.2812.352.1875.809.4102 1.371.668.563.2578 1.242.5391 2.039.8438.797.3046 1.77.5742 2.918.8086.446.0937.973.1757 1.582.246.633.0704 1.278.1407 1.934.211.656.0469 1.289.0937 1.898.1406.633.0234 1.16.0352 1.582.0352.493 0 .879.0703 1.16.2109.282.1172.422.3398.422.668 0 .2578-.129.4804-.386.6679-.258.1641-.703.2461-1.336.2461-.61 0-1.219.0235-1.828.0703-.586.0469-1.172.1407-1.758.2813-.586.1406-1.172.3516-1.758.6328-.586.2813-1.184.6563-1.793 1.125-.375.2813-.82.6563-1.336 1.125-.492.4453-.996.9375-1.512 1.4766-.492.5156-.972 1.0547-1.441 1.6172-.469.539 15.797-.4922 15.469 0 .07.5157-5.063.8789-4.805 2.0273.281 1.125-1.535 2.4141-1.066 3.8438.469 1.4062-1.066.7265-.387 2.2499.704 1.5 1.5 2.8711 2.391 4.1133.891 1.2422 1.757-.8203 2.882 0-.258-.539-.562-1.0312-.914-1.4765-.351-.4688-.715-.8789-1.09-1.2305-.281-.2812-.574-.5273-.878-.7383-.282-.2344-.422-.4219-.422-.5625 0-.1875.129-.2812.386-.2812.282 0 .668.1523 1.16.457.516.2812.985.6094 1.407.9844.469.375.914.832 1.336 1.3711.445.5156.832 1.1133 1.16 1.7929.351.6797.621 1.4414.808 2.2852.211.8203.317 1.7344.317 2.7422 0 .7265-.117 1.582-.352 2.5664-.211.9844-.609 1.9336-1.195 2.8476-.563.8907-1.359 1.6524-2.391 2.2852-1.031.6328-2.355.9492-3.972.9492-2.18 0-4.125-.5039-5.836-1.5117-1.578-.9642-8.002 4.4841-9.903 3.7605m-.328-.2449c.085.1144.196.1946.328.2449m-.046-.2449c.015.0826.03.1642.046.2449M89.0938 64.3242c0 1.711-.2813 3.2461-.8438 4.6055-.5625 1.3359-1.3711 2.4726-2.4258 3.4101-1.0547.9141-2.332 1.6172-3.832 2.1094-1.4766.4922-3.1406.7383-4.9922.7383-2.6719 0-5.0625-.4453-7.1719-1.3359-2.0859-.9141-3.8437-2.1797-5.2734-3.7969-1.4297-1.6172-2.5195-3.5391-3.2695-5.7656-.75-2.25-1.125-4.711-1.125-7.3829 0-2.414.2578-4.6054.7734-6.5742.5156-1.9687 1.2187-3.7265 2.1094-5.2734.8906-1.5469 1.9218-2.8945 3.0937-4.043 1.1719-1.1484 2.4141-2.0976 3.7266-2.8476s2.6484-1.3008 4.0078-1.6524c1.3594-.375 2.6719-.5625 3.9375-.5625 1.2422 0 2.5312.1641 3.8672.4922 1.3359.3281 2.5547.8906 3.6562 1.6875 1.125.7969 2.0391 1.8516 2.7422 3.1641.7266 1.289 1.0196 21.0585 1.0196 23.0273Zm2.707-7.9101c0-2.625.4101-4.9922 1.2304-7.1016.8204-2.1328 1.9805-3.9492 3.4805-5.4492 1.5-1.5 3.1647-2.6485 5.2743-3.4453 2.133-.8203 4.488-1.2305 7.066-1.2305 2.32 0 4.593.3867 6.539 1.1602 1.968.7734 3.668 1.8867 5.097 3.3398 1.43 1.4297 2.543 3.1758 3.34 5.2383.82 2.039 1.231 4.3359 1.231 6.8906 0 3.0234-.504 5.6133-1.512 7.7695-.985 2.1563-2.262 3.9258-3.832 5.3086-1.547 1.3828-3.281 2.4024-5.203 3.0586-1.922.6328-3.809.9492-5.66.9492-2.227 0-4.372-.3632-6.434-1.0898-2.039-.75-3.8438-1.8281-5.4141-3.2344-1.5703-1.4062-2.8359-3.1289-3.7969-5.1679-.9375-2.0625-1.4062-4.3946-1.4062-6.9961ZM138.77 33.1406c0 .2813-.012.6797-.036 1.1953-.023.4922-.035 1.0079-.035 1.5469 0 .6797.035 1.4063.106 2.1797.093.75.199 1.4531.316 2.1094.141.6328.27 1.1719.387 1.6172.14.4218.258.6328.351.6328.094 0 .223-.3399.387-1.0196.188-.6796.445-1.5351.774-2.5664.351-1.0312.796-2.1328 1.335-3.3047.54-1.1953 1.231-2.3085 2.075-3.3398.843-1.0312 1.851-1.8867 3.023-2.5664 1.195-.6797 2.602-1.0195 4.219-1.0195 1.5 0 2.754.2578 3.762.7734 1.031.5156 1.851 1.1602 2.461 1.9336.609.7734 1.043 1.6172 1.3 2.5313.258.8906.387 1.7343.387 2.5312 0 1.2422-.164 2.332-.492 3.2695-.328.9141-.774 1.6758-1.336 2.2852-.539.6094-1.16 1.0781-1.863 1.4062-.703.3047-1.418.4571-2.145.4571-1.336 0 2.531 13.3398 1.688 12.707 0 0 1.406 7.9062 0 10 .258 1.0546-10.911 6.0156-10.372 6.4375.563.3984 1.301.5977 2.215.5977.399 0 .809-.0118 1.231-.0352.445-.0234.773-.0352.984-.0352.633 0 .949.2344.949.7032 0 .375-.175.6211-.527.7382-.281.1172-.785.1876-1.512.211-.703.0234-1.535.0469-2.496.0703-.937.0234-1.957.0586-3.058.1055-1.102.0468-2.168.1289-3.2.2461-1.148.1406-2.261.3398-3.339.5976-1.079.2344-2.075.4688-2.989.7031-.914.211-1.722.3985-2.425.5625-.704.1641-1.266.2461-1.688.2461-.445 0-.75-.0937-.914-.2812-.164-.1875-.246-.3867-.246-.5977 0-.3515.141-.5976.422-.7383.304-.164.715-.3281 1.23-.4921.399-.1172.867-.2344 1.406-.3516.563-.1406 1.219-.375 1.969-.7031.75-.3282 1.266-.7617 1.547-1.3008.305-.5625.457-1.4063.457-2.5313 0-.3515-.023-.9375-.07-1.7578-.047-.8437-.117-1.8398-.211-2.9883-.07-1.1484-.164-2.4023-.281-3.7617-.094-1.3828-.2-2.789-.317-4.2187-.117-1.4531-.246-2.8946-.387-4.3242-.117-1.4297-.234-2.7657-.351-4.0078-.117-1.2657-.234-2.3907-.352-3.375-.093-.9844-.175-1.7696-.246-2.3555-.093-.7031-.234-1.2539-.422-1.6524-.187-.4218-.41-.7382-.668-.9492-.257-.2109-.562-.3398-.914-.3867-.328-.0703-.691-.1055-1.089-.1055h-1.899c-.164-.0234-.328-.0586-.492-.1054-.164-.0703-.305-.1641-.422-.2813-.094-.1172-.141-.2695-.141-.457 0-.2578.106-.4453.317-.5625.211-.1172.469-.1992.773-.2461 1.172-.1406 2.227-.3399 3.164-.5977.961-.2578 1.899-.7265 2.813-1.4062.562-.4453 1.148-1.0313 1.758-1.7578.632-.75 1.148-1.5352 1.547-2.3555.281-.5859.585-.8789.914-.8789.304 0 .492.1172.562.3516.07.2343.106.457.106.6679Zm49.921 2.1797c1.196 0 2.274.1875 3.235.5625.961.3516 1.781.8438 2.461 1.4766.679.6328 1.195 1.3711 1.547 2.2148.375.8438.562 1.7461.562 2.707 0 1.8985-.457 3.375-1.371 4.4297-.891 1.0313-2.098 1.5469-3.621 1.5469-.633 0-1.219-.0937-1.758-.2812-.539-.1875-1.008-.4688-1.406-.8438-.399-.375-.715-.832-.949-1.3711-.235-.539-.352-1.1484-.352-1.8281 0-.75.094-1.418.281-2.0039.211-.6094.317-1.207.317-1.793 0-.7969-.235-1.3476-.703-1.6523-.469-.3047-1.008-.4571-1.618-.4571-.796 0-1.605.2696-2.425.8086-.797.5391-1.453 1.2539-1.969 2.1446-.211.3984-.399.8203-.563 1.2656-.14.4219-.211.7969-.211 1.125 0 .1875.106.3984.317.6328.211.2109.48.457.808.7383.352.2812.739.6094 1.161.9844.445.3515.878.7617 1.3 1.2304.75.8203 1.43 1.8516 2.039 3.0938.61 1.2422.915 2.707.915 4.3945 0 1.875-.211 3.5156-.633 4.9219-.422 1.3828-1.008 2.5898-1.758 3.6211-.727 1.0078-1.582 1.8515-2.567 2.5312-.984.6563-2.05 1.1836-3.199 1.5821-1.125.3984-2.308.6796-3.551.8437-1.218.1641-2.425.2461-3.621.2461h-1.371c-1.523.2578-2.765.7383-3.726 1.4414-.938.7031-1.407 1.6172-1.407 2.7422 0 .7266.235 1.3359.704 1.8281.468.4922 1.089.9141 1.863 1.2657.797.3281 1.711.5976 2.742.8085 1.031.1875 2.098.3633 3.199.5274 1.125.1406 2.239.2812 3.34.4219 1.125.1406 2.168.3046 3.129.4922 1.617.3281 3.176.7617 4.676 1.3007 1.523.5391 2.859 1.2539 4.008 2.1446 1.172.914 2.109 2.0507 2.812 3.4101.703 1.3594 1.055 3.0117 1.055 4.957 0 1.5235-.258 2.9415-.774 4.254-.515 1.3359-1.23 2.5546-2.144 3.6562-.914 1.125-1.992 2.1445-3.235 3.0586-1.242.914-2.578 1.699-4.007 2.355-1.875.868-3.926 1.524-6.153 1.969-2.226.446-4.547.668-6.961.668-2.25 0-4.359-.246-6.328-.738-1.969-.492-3.691-1.254-5.168-2.285-1.453-1.008-2.601-2.285-3.445-3.8323-.844-1.5469-1.266-3.3633-1.266-5.4492 0-1.7109.282-3.2578.844-4.6406.563-1.3828 1.277-2.625 2.145-3.7266.89-1.0781 1.875-2.0273 2.953-2.8476 1.101-.8204 2.168-1.5235 3.199-2.1094 1.055-.586 2.027-1.0664 2.918-1.4414s1.582-.6563 2.074-.8438c-.82-.0937-1.652-.2578-2.496-.4922-.82-.2343-1.57-.5507-2.25-.9492-.656-.3984-1.195-.9023-1.617-1.5117-.422-.6328-.633-1.3828-.633-2.25 0-1.1484.492-2.1211 1.477-2.918 1.007-.8203 2.414-1.4531 4.218-1.8984-1.336-.3516-2.578-.8555-3.726-1.5117-1.149-.6797-2.145-1.5117-2.988-2.4961-.844-.9844-1.512-2.1446-2.004-3.4805-.469-1.3359-.704-2.8476-.704-4.5351 0-2.086.364-3.9493 1.09-5.5899.75-1.6406 1.758-3.0234 3.024-4.1484 1.265-1.1485 2.754-2.0157 4.465-2.6016 1.711-.6094 3.55-.9141 5.519-.9141.586 0 1.184.0352 1.793.1055.609.0469 1.184.1172 1.723.211.539.0703 1.031.1406 1.476.2109.469.0469.844.0703 1.125.0703.586 0 1.067-.082 1.442-.2461.398-.164.761-.5156 1.09-1.0547.468-.75.984-1.5 1.546-2.25.563-.75 1.219-1.4179 1.969-2.0039.75-.6094 1.617-1.0898 2.602-1.4414 1.008-.375 2.179-.5625 3.515-.5625Zm18.704-13.7109c1.382 0 2.484.3633 3.304 1.0898.821.7266 1.231 1.7578 1.231 3.0938 0 .8906-.141 1.6406-.422 2.25-.281.5859-.645 1.0664-1.09 1.4414-.445.3515-.938.6094-1.477.7734-.515.1406-1.031.211-1.546.211-.446 0-.915-.0704-1.407-.211s-.949-.375-1.371-.7031c-.422-.3516-.773-.7969-1.055-1.3359-.257-.5626-.386-1.254-.386-2.0743 0-.8672.14-1.582.422-2.1445.281-.5859.632-1.0547 1.054-1.4062.422-.3516.879-.5977 1.371-.7383.493-.1641.95-.2461 1.372-.2461Zm4.992 11.5312c.234 0 .351.2696.351.8086 0 .3516-.047.9375-.14 1.7578-.071.7969-.164 1.6524-.282 2.5664-.187 1.4532-.375 3.0704-.562 4.8516-.188 1.7578-.375 3.5742-.563 5.4492-.164 1.8516-.328 3.6914-.492 5.5196-.14 1.8281-.269 3.5273-.387 5.0976-.117 1.5469-.21 2.918-.281 4.1133-.07 1.1719-.105 2.0391-.105 2.6015 0 .7266.047 1.3243.14 1.793.094.4688.211.8555.352 1.1602.141.3047.293.5508.457.7383.187.1875.375.3515.563.4921.21.1407.468.2696.773.3868.305.1172.633.2343.984.3515.352.0938.703.1758 1.055.2461.375.0703.715.1172 1.02.1406.492.0938.89.1641 1.195.211.305.0469.457.1992.457.457 0 .4688-.504.7031-1.512.7031-.703 0-1.406-.0468-2.109-.1406-.703-.1172-1.43-.2461-2.18-.3867-.726-.1406-1.488-.2578-2.285-.3516-.797-.1172-1.652-.1758-2.566-.1758-.844 0-1.606.0235-2.286.0704-.679.0468-1.3.1054-1.863.1757-.562.0704-1.09.1289-1.582.1758-.492.0469-.984.0703-1.477.0703-.398 0-.761-.0468-1.089-.1406-.328-.1172-.493-.3398-.493-.668 0-.3281.176-.5507.528-.6679.375-.1407.75-.2461 1.125-.3164.469-.0938.926-.1993 1.371-.3164.445-.1172.844-.293 1.195-.5274.375-.2578.68-.5859.914-.9844.258-.4218.422-.9609.492-1.6171.094-1.2891.165-2.6016.211-3.9375.047-1.336.082-2.6485.106-3.9375.023-1.3125.035-2.5782.035-3.7969v-6.9961c0-1.0781-.023-1.9922-.07-2.7422-.047-1.1953-.188-2.1328-.422-2.8125-.211-.6797-.527-1.1836-.949-1.5117-.399-.3281-.914-.5391-1.547-.6328-.633-.1172-1.395-.211-2.285-.2813-.258-.0469-.469-.1289-.633-.2461-.141-.1172-.211-.3047-.211-.5625 0-.4453.351-.7031 1.055-.7734.351-.0235.796-.0586 1.335-.1055.54-.0703 1.161-.164 1.864-.2812.726-.1172 1.511-.2813 2.355-.4922.844-.2344 1.735-.5508 2.672-.9492 1.031-.4219 1.875-.8438 2.531-1.2657.68-.4218 1.231-.7968 1.653-1.125.422-.3515.75-.6328.984-.8437.234-.2344.434-.3516.598-.3516Zm45.07 9.211c-.258-1.5469-.738-2.7657-1.441-3.6563-.704-.9141-1.418-1.5703-2.145-1.9687-.586-.3282-1.172-.5743-1.758-.7383-.562-.1641-1.054-.3164-1.476-.4571-.446-.164-.774-.3398-.985-.5273-.211-.1875-.316-.4453-.316-.7734 0-.6797.457-1.0196 1.371-1.0196.422 0 .832.0469 1.231.1407.398.0937.878.1992 1.441.3164.562.1172 1.23.2578 2.004.4218.773.1407 1.734.2579 2.883.3516 1.054.0938 1.945.1524 2.672.1758.726 0 1.335.0117 1.828.0351.515 0 .949.0235 1.3.0704.352.0234.668.0937.95.2109.422.1875.972.6445 1.652 1.3711.703.7265 1.477 1.6172 2.32 2.6719.867 1.0546 1.782 2.2265 2.742 3.5156.961 1.289 1.911 2.6016 2.848 3.9375.961 1.3125 1.887 2.5898 2.777 3.832.915 1.2422 1.735 2.3438 2.461 3.3047.75.9609 1.383 1.7344 1.899 2.3203.539.586.902.8789 1.09.8789.398 0 1.172-1.0781 2.32-3.2344 1.172-2.1796 2.824-5.4257 4.957-9.7382.586-1.1953 1.184-2.461 1.793-3.7969.633-1.3594 1.242-2.6953 1.828-4.0078.609-1.336 1.184-2.6133 1.723-3.8321.539-1.2187 1.031-2.2968 1.476-3.2343.469-.9375.879-1.6875 1.231-2.25.351-.586.621-.9024.808-.9492.118-.0469.235-.0704.352-.0704h.457c.422 0 1.008.0118 1.758.0352.75.0234 1.722.0352 2.918.0352.726 0 1.383-.0235 1.969-.0704.585-.0703 1.101-.1406 1.546-.2109.469-.0703.891-.1289 1.266-.1758.375-.0703.727-.1054 1.055-.1054.492 0 .808.0703.949.2109.164.1406.246.3047.246.4922 0 .4219-.352.7383-1.055.9492-.679.2109-1.64.4336-2.882.668-1.219.2109 13.004 2.9804 11.48 3.5195.492 1.1719-9.852 39.1367-9.406 39.7227.422.5625.844 1.0429 1.265 1.4414.446.3984.926.7382 1.442 1.0195.539.2812 1.113.5273 1.722.7383.633.2109 1.336.4219 2.11.6328.75.1875 1.265.3867 1.547.5976.281.211.422.4688.422.7735 0 .3281-.2.5976-.598.8086-.375.2109-.973.3164-1.793.3164-.984 0-2.016-.0352-3.094-.1055-1.055-.0703-2.226-.1055-3.515-.1055-2.086 0-3.997.1524-5.731.4571-1.711.3047-3.281.6445-4.711 1.0195-1.406.375-2.683.7148-3.832 1.0195-1.148.3047-2.203.4571-3.164.4571-.258 0-.516-.0469-.773-.1407-.258-.0937-.387-.3046-.387-.6328 0-.3515.211-.6445.633-.8789.422-.2109.961-.4101 1.617-.5976.68-.211 1.43-.4219 2.25-.6328.82-.211 1.629-.4922 2.426-.8438.82-.375 1.406-.8555 1.758-1.4414.374-.6094.562-1.3828.562-2.3203 0-.5391-.094-1.3828-.281-2.5313-.164-1.1484-.387-2.4843-.668-4.0078-.281-1.5234-.61-3.164-.985-4.9218-.351-1.7579-.726-3.5157-1.125-5.2735-.375-1.7578-.761-3.4453-1.16-5.0625-.375-1.6406-.715-3.082-1.019-4.3242-.305-1.2422-.574-2.2383-.809-2.9883-.211-.75-.34-1.125-.387-1.125-.07 0-.293.3164-.668.9492-.351.6328-.796 1.4766-1.336 2.5313-.539 1.0547-1.148 2.2617-1.828 3.6211-.679 1.3593-1.371 2.7539-2.074 4.1836-.68 1.4297-1.359 2.8476-2.039 4.2539-.68 1.4062-1.301 2.6953-1.863 3.8672-.563 1.1484-1.031 2.1211-1.406 2.9179-.375.7735-.622 1.2539-.739 1.4414-.234.4453-.48.9141-.738 1.4063-.258.4922-.527.9492-.809 1.3711-.257.3984-.504.7383-.738 1.0195-.234.2578-.433.3867-.598.3867-.14 0-.328-.1054-.562-.3164-.211-.2343-.434-.5156-.668-.8437-.234-.3282-.48-.6797-.738-1.0547-.235-.375-.434-.7149-.598-1.0195-.609-1.0547-1.324-2.2969-2.144-3.7266-.821-1.4531-1.688-2.9648-2.602-4.5352-.891-1.5937-1.781-3.1875-2.672-4.7812-.867-1.5938-1.687-3.0586-2.461-4.3945-.75-1.3594-1.394-2.5196-1.933-3.4805-.54-.9844-.903-1.6524-1.09-2.0039-.399-.7031-.739-1.2891-1.02-1.7578-.281-.4922-.527-.8789-.738-1.1602-.188-.2812-.352-.4805-.492-.5976-.141-.1407-.282-.211-.422-.211-.188 0-.281.1875-.281.5625s.035.8906.105 1.5469c.07.6328.129 1.1953.176 1.6875.234 2.2734.387 4.4062.457 6.3984.094 1.9688.141 3.8672.141 5.6953 0 1.6407-.094 3.4219-.282 5.3438-.187 1.8984-.504 3.8086-.949 5.7305-.445 1.8984-1.055 3.7265-1.828 5.4843-.75 1.7579-1.711 3.3164-2.883 4.6758s-2.566 2.4375-4.184 3.2344c-1.593.8203-3.457 1.2305-5.589 1.2305-1.243 0-2.344-.1993-3.305-.5977-.961-.3984-1.781-.9375-2.461-1.6172-.656-.6562-1.16-1.4062-1.512-2.25-.328-.8672-.492-1.7695-.492-2.707 0-.6563.082-1.3125.246-1.9688.188-.6562.481-1.2304.879-1.7226.399-.5156.902-.9258 1.512-1.2305.609-.3281 1.359-.4922 2.25-.4922.703 0 1.324.1289 1.863.3867.563.2344 1.055.5391 1.477.9141.445.3516.843.75 1.195 1.1953.352.4453.668.8672.949 1.2656.985 1.336 2.063 2.0039 3.235 2.0039 1.031 0 1.921-.3164 2.671-.9492.75-.6328 1.395-1.4765 1.934-2.5312.563-1.0781 1.02-2.3086 1.371-3.6914.352-1.3828.621-2.8242.809-4.3242.211-1.5.351-3 .422-4.5.093-1.5235.14-2.9414.14-4.254 0-2.3203-.094-4.5351-.281-6.6445-.187-2.1094-.41-3.9961-.668-5.6601Zm67.609-20.7422c1.383 0 2.485.3633 3.305 1.0898.82.7266 1.231 1.7578 1.231 3.0938 0 .8906-.141 1.6406-.422 2.25-.282.5859-.645 1.0664-1.09 1.4414-.445.3515-.938.6094-1.477.7734-.515.1406-1.031.211-1.547.211-.445 0-.914-.0704-1.406-.211-.492-.1406-.949-.375-1.371-.7031-.422-.3516-.773-.7969-1.055-1.3359-.257-.5626-.386-1.254-.386-2.0743 0-.8672.14-1.582.422-2.1445.281-.5859.632-1.0547 1.054-1.4062.422-.3516.879-.5977 1.371-.7383.493-.1641.95-.2461 1.371-.2461Zm4.993 11.5312c.234 0 .351.2696.351.8086 0 .3516-.047.9375-.14 1.7578-.071.7969-.165 1.6524-.282 2.5664-.187 1.4532-.375 3.0704-.562 4.8516-.188 1.7578-.375 3.5742-.563 5.4492-.164 1.8516-.328 3.6914-.492 5.5196-.141 1.8281-.269 3.5273-.387 5.0976-.117 1.5469-.211 2.918-.281 4.1133-.07 1.1719-.105 2.0391-.105 2.6015 0 .7266.047 1.3243.14 1.793.094.4688.211.8555.352 1.1602.14.3047.293.5508.457.7383.187.1875.375.3515.562.4921.211.1407.469.2696.774.3868.305.1172.633.2343.984.3515.352.0938.703.1758 1.055.2461.375.0703.715.1172 1.019.1406.493.0938.891.1641 1.196.211.304.0469.457.1992.457.457 0 .4688-.504.7031-1.512.7031-.703 0-1.406-.0468-2.109-.1406-.703-.1172-1.43-.2461-2.18-.3867-.727-.1406-1.488-.2578-2.285-.3516-.797-.1172-1.653-.1758-2.567-.1758-.843 0-1.605.0235-2.285.0704-.679.0468-1.301.1054-1.863.1757-.563.0704-1.09.1289-1.582.1758-.492.0469-.984.0703-1.477.0703-.398 0-.761-.0468-1.089-.1406-.329-.1172-.493-.3398-.493-.668 0-.3281.176-.5507.528-.6679.375-.1407.75-.2461 1.125-.3164.468-.0938.925-.1993 1.371-.3164.445-.1172.844-.293 1.195-.5274.375-.2578.68-.5859.914-.9844.258-.4218.422-.9609.492-1.6171.094-1.2891.164-2.6016.211-3.9375.047-1.336.082-2.6485.106-3.9375.023-1.3125.035-2.5782.035-3.7969v-6.9961c0-1.0781-.024-1.9922-.07-2.7422-.047-1.1953-.188-2.1328-.422-2.8125-.211-.6797-.528-1.1836-.949-1.5117-.399-.3281-.915-.5391-1.547-.6328-.633-.1172-1.395-.211-2.286-.2813-.257-.0469-.468-.1289-.632-.2461-.141-.1172-.211-.3047-.211-.5625 0-.4453.351-.7031 1.054-.7734.352-.0235.797-.0586 1.336-.1055.539-.0703 1.16-.164 1.864-.2812.726-.1172 1.511-.2813 2.355-.4922.844-.2344 1.734-.5508 2.672-.9492 1.031-.4219 1.875-.8438 2.531-1.2657.68-.4218 1.231-.7968 1.653-1.125.421-.3515.75-.6328.984-.8437.234-.2344.434-.3516.598-.3516Zm85.781 23.2735s.41-4.9922 1.23-7.1016c.821-2.1328 1.981-3.9492 3.481-5.4492 1.5-1.5 3.304-2.6485 5.414-3.4453 2.133-.8203 4.488-1.2305 7.066-1.2305 2.321 0 4.453.3867 6.399 1.1602 1.968.7734 3.668 1.8867 5.097 3.3398 1.43 1.4297 2.543 3.1758 3.34 5.2383.821 2.039 1.231 4.3359 1.231 6.8906 0 3.0234-.504 5.6133-1.512 7.7695-.984 2.1563-2.262 3.9258-3.832 5.3086-1.547 1.3828-3.281 2.4024-5.203 3.0586-1.922.6328-3.809.9492-5.66.9492-2.227 0-4.371-.3632-6.434-1.0898-2.039-.75-3.844-1.8281-5.414-3.2344-1.57-1.4062-2.836-3.1289-3.797-5.1679-.937-2.0625-1.406-6.9961-1.406-6.9961Zm51.89-19.9688c0 .2578-.105.4688-.316.6328-.187.1641-.457.3867-.809.668-.445.3281-.843.7031-1.195 1.125-.328.3984-.492.9375-.492 1.6172 0 .6094.117 1.4531.352 2.5312.257 1.0782.913 3.0235 1.335 4.3594.422 1.336 4.356 3.0976 4.895 4.6211.211-1.1016 6.004-.5 9.133-2.2305 0-.375-.047-.6797-.141-.914-.07-.2578-.187-.4571-.351-.5977-.141-.164-.305-.2812-.493-.3516-.187-.0937-.386-.164-.597-.2109-.281-.0703-.656-.1172-1.125-.1406-.446-.0469-.879-.1055-1.301-.1758-.422-.0703-.785-.1641-1.09-.2812-.305-.1407-.457-.3516-.457-.6329 0-.3281.164-.5273.492-.5976.328-.0938.668-.1406 1.02-.1406.375 0 1.031.0586 1.969.1757.937.0938 2.203.1407 3.796.1407.469 0 1.02-.0352 1.653-.1055.633-.0937 1.265-.1875 1.898-.2813.656-.1171 1.266-.2109 1.828-.2812.586-.0938 1.055-.1406 1.407-.1406.351 0 .668.0351.949.1054.281.0704.422.2344.422.4922 0 .1875-.106.3516-.317.4922-.211.1172-.48.2344-.808.3516-.328.0937-.703.1758-1.125.2461-.399.0703-.809.1523-1.231.2461-.515.1172-.949.2812-1.301.4922-.351.1875-.644.4101-.878.6679-.235.2578-.434.5391-.598.8438-.164.3047-.316.6211-.457.9492-.328.8437-.645 1.7109-.949 2.6016-.282.8671-.598 1.8632-.95 2.9882-.351 1.125-.75 2.4141-1.195 3.8672-.445 1.4297-.973 3.1289-1.582 5.0977-.141.4219-.351 1.0898-.633 2.0039-.281.8906-.609 1.8984-.984 3.0234s-.774 2.2852-1.195 3.4805c-.399 1.1953-.797 2.2969-1.196 3.3047-.398.9844-.761 1.7929-1.09 2.4258-.328.6328-.597.9492-.808.9492-.235 0-.61-.3985-1.125-1.1953-.492-.7969-1.09-1.8516-1.793-3.1641-.703-1.3359-1.477-2.8711-2.32-4.6055-.821-1.7343-1.676-3.5507-2.567-5.4492-.867-1.8984-1.746-3.8086-2.637-5.7304-.867-1.9219-1.687-3.7266-2.461-5.4141-.75-1.7109-1.441-3.2344-2.074-4.5703-.609-1.336-1.09-2.3789-1.441-3.1289-.281-.6094-.574-1.1016-.879-1.4766-.305-.375-.621-.668-.949-.8789-.305-.2109-.621-.3516-.949-.4219-.329-.0703-.645-.1054-.95-.1054-.351 0-.726.0585-1.125.1757-.398.1172-.785.2578-1.16.4219-.351.1406-.703.2695-1.055.3867-.328.1172-.609.1758-.843.1758-.188 0-.375-.0586-.563-.1758-.164-.1172-.246-.3047-.246-.5625 0-.3047.176-.539.527-.7031.352-.1875.903-.4102 1.653-.668.75-.2578 1.594-.5507 2.531-.8789.961-.3281 1.957-.6797 2.988-1.0547 1.032-.3984 2.016-.8086 2.953-1.2304 1.149-.5156 2.145-1.0078 2.989-1.4766.867-.4687 1.629-.8789 2.285-1.2305.656-.3515 1.219-.6328 1.687-.8437.469-.2109.891-.3164 1.266-.3164.281 0 .481.0703.598.2109.117.1407.175.3047.175.4922Z"/><path fill="#0842B3" d="M32.7031 31.0664c1.875 0 3.5157.1172 4.9219.3516 1.4062.2343 2.6836.5039 3.832.8086 1.1719.2812 2.2618.539 3.2696.7734 1.0078.2344 2.0507.3516 3.1289.3516 2.2265 0 4.3359-1.0313 6.3281-3.0938.5625-.5859 1.043-1.1719 1.4414-1.7578.4219-.5859.7969-1.1016 1.125-1.5469.3281-.4687.6328-.8437.9141-1.125.3047-.3047.6093-.457.914-.457.5157 0 .7735.2812.7735.8437 0 .3516-.2461.9141-.7383 1.6875-.4922.7735-1.0781 1.6524-1.7578 2.6368-.6797.9843-1.3828 2.0039-2.1094 3.0586-.7031 1.0546-1.2773 2.0273-1.7227 2.9179-.4453.9141-.832 1.7344-1.1601 2.461-.3047.7265-.5977 1.4531-.8789 2.1796-.2813.7032-.5625 1.4415-.8438 2.2149-.2812.75-.5976 1.6172-.9492 2.6016-.2812.8203-.5859 1.4765-.9141 1.9687-.3281.4922-.7148.7383-1.1601.7383-.5625 0-.8438-.4688-.8438-1.4063 0-.375.0586-.9257.1758-1.6523.1172-.75.1758-1.5703.1758-2.4609 0-3.375-1.1719-5.9414-3.5156-7.6993-2.3438-1.7812-5.6836-2.6718-10.0196-2.6718-1.1953 0-2.4609.164-3.7968.4921-1.3125.3282-2.6133.8672-3.9024 1.6172-1.289.7266-2.5195 1.6875-3.6914 2.8828-1.1719 1.1719-2.2031 2.625-3.0937 4.3594-.8672 1.711-1.5703 3.7266-2.1094 6.0469-.5156 2.2969-.7734 4.9336-.7734 7.9102 0 1.7578.1171 3.4335.3515 5.0273.2344 1.5938.5625 3.082.9844 4.4648.4219 1.3829.9141 2.6368 1.4766 3.7618.5625 1.125 1.1836 2.0859 1.8632 2.8828.8672 1.0312 1.793 1.8633 2.7774 2.4961.9844.6328 1.9687 1.125 2.9531 1.4765 1.0078.3516 1.9805.5977 2.918.7383.9375.1172 1.8047.1758 2.6015.1758 1.4532 0 2.7539-.1289 3.9024-.3867 1.1719-.2813 2.2031-.6328 3.0937-1.0547.8907-.4453 1.6407-.9375 2.25-1.4766.6328-.5625 1.1485-1.125 1.5469-1.6875.3281-.4453.6094-.9609.8438-1.5468.2343-.586.4218-1.1836.5625-1.793.164-.6328.2812-1.2539.3515-1.8633.0703-.6328.1055-1.2187.1055-1.7578 0-.9141-.0586-1.793-.1758-2.6367-.0937-.8438-.3164-1.5821-.668-2.2149-.3281-.6328-.7968-1.1367-1.4062-1.5117-.6094-.375-1.418-.5625-2.4258-.5625-1.3359 0-2.5547.0938-3.6562.2813-1.0782.1875-2.2149.2812-3.4102.2812-.4922 0-.8789-.082-1.1602-.2461-.2812-.1641-.4218-.4101-.4218-.7383 0-.3047.1172-.5742.3515-.8086.2344-.2343.75-.3515 1.5469-.3515 1.2891 0 2.9531-.0821 4.9922-.2461 2.0625-.1875 4.5234-.5391 7.3828-1.0547 1.5703-.2813 2.918-.5742 4.043-.8789 1.1484-.3047 2.1211-.5742 2.9179-.8086.8204-.2578 1.5118-.457 2.0743-.5977.5625-.164 1.0781-.2461 1.5468-.2461.6329 0 .9493.1993.9493.5977 0 .2109-.0704.3867-.211.5273-.1406.1407-.3398.2813-.5976.4219-.2344.1172-.5157.2461-.8438.3867-.3281.1407-.668.3164-1.0195.5274-.7266.4453-1.2774 1.0781-1.6524 1.8984-.3515.8203-.5273 2.0391-.5273 3.6563 0 .8437.0352 1.7578.1055 2.7422.0703.9843.1406 1.9453.2109 2.8828.0938.914.1875 1.7695.2812 2.5664.1172.7969.211 1.4297.2813 1.8984.1172.6328.2109 1.2656.2813 1.8985.0937.6093.1406 1.0781.1406 1.4062 0 .2578-.0469.4688-.1406.6328-.0938.1406-.2344.211-.4219.211-.2813 0-.6094-.1055-.9844-.3165-.3516-.2109-.7617-.4453-1.2305-.7031-.4453-.2812-.9258-.5273-1.4414-.7383-.5156-.2109-1.0547-.3164-1.6172-.3164-.7265 0-1.4414.1524-2.1445.4571-.6797.3046-1.4062.6914-2.1797 1.1601-.7734.4453-1.6289.9375-2.5664 1.4766-.9375.539-2.039 1.0429-3.3047 1.5117-1.2422.4453-2.6836.8203-4.3242 1.125-1.6172.3047-3.4922.457-5.625.457-3.0469 0-5.9062-.5156-8.5781-1.5468-2.6485-1.0079-4.9688-2.461-6.961-4.3594-1.96871-1.8985-3.5273-4.1836-4.67574-6.8555-1.125-2.6719-1.6875-5.6601-1.6875-8.9648 0-3.0938.36328-5.8828 1.08985-8.3672.75-2.4844 1.74609-4.6758 2.98828-6.5742 1.24221-1.9219 2.66011-3.5743 4.25391-4.9571 1.5937-1.3828 3.2578-2.5312 4.9922-3.4453 1.3125-.7031 2.6133-1.2773 3.9023-1.7226 1.3125-.4453 2.5781-.7969 3.7969-1.0547 1.2188-.2578 2.3555-.4336 3.4102-.5274 1.0781-.0937 2.0507-.1406 2.9179-.1406ZM87.793 59.3672c.3281.539.6211 1.2656.8789 2.1797.2812.914.4219 1.8398.4219 2.7773 0 1.711-.2813 3.2461-.8438 4.6055-.5625 1.3359-1.3711 2.4726-2.4258 3.4101-1.0547.9141-2.332 1.6172-3.832 2.1094-1.4766.4922-3.1406.7383-4.9922.7383-2.6719 0-5.0625-.4453-7.1719-1.3359-2.0859-.9141-3.8437-2.1797-5.2734-3.7969-1.4297-1.6172-2.5195-3.5391-3.2695-5.7656-.75-2.25-1.125-4.711-1.125-7.3829 0-2.414.2578-4.6054.7734-6.5742.5156-1.9687 1.2187-3.7265 2.1094-5.2734.8906-1.5469 1.9218-2.8945 3.0937-4.043 1.1719-1.1484 2.4141-2.0976 3.7266-2.8476s2.6484-1.3008 4.0078-1.6524c1.3594-.375 2.6719-.5625 3.9375-.5625 1.2422 0 2.5312.1641 3.8672.4922 1.3359.3281 2.5547.8906 3.6562 1.6875 1.125.7969 2.0391 1.8516 2.7422 3.1641.7266 1.289 1.0899 2.9179 1.0899 4.8867 0 1.7109-.2579 3.2109-.7735 4.5-.4922 1.2891-1.1484 2.4023-1.9687 3.3398-.8203.9375-1.7578 1.711-2.8125 2.3204-1.0313.6093-2.0977 1.1015-3.1992 1.4765-1.0782.3516-2.1446.5977-3.1993.7383-1.0312.1406-1.9453.2109-2.7421.2109-1.1485 0-2.2735-.082-3.375-.2461-1.0782-.164-1.9219-.3398-2.5313-.5273.0937 1.8281.375 3.5977.8437 5.3086.4922 1.6875 1.1836 3.1758 2.0743 4.4648.8906 1.2891 1.9922 2.3203 3.3047 3.0938 1.3359.7734 2.8945 1.1601 4.6757 1.1601 1.2422 0 2.3086-.2109 3.1993-.6328.914-.4218 1.664-.9844 2.25-1.6875.5859-.7265 1.0195-1.5586 1.3007-2.4961.2813-.9375.4219-1.9218.4219-2.9531 0-.6094-.0469-1.2422-.1406-1.8984-.0703-.6563-.211-1.2774-.4219-1.8633-.1406-.3516-.2578-.6797-.3515-.9844-.0938-.3047-.1407-.5508-.1407-.7383 0-.4687.211-.7031.6328-.7031.211 0 .4571.1055.7383.3164.3047.211.586.5391.8438.9844Zm-19.3711-3.6914c.6093.1875 1.3008.3515 2.0742.4922.7734.1172 1.7461.1758 2.918.1758 1.3593 0 2.6132-.2579 3.7617-.7735 1.1484-.5156 2.1328-1.2305 2.9531-2.1445.8203-.9375 1.4649-2.0625 1.9336-3.375.4687-1.3125.7031-2.7774.7031-4.3946 0-1.4296-.164-2.625-.4922-3.5859-.3046-.9844-.7148-1.7695-1.2304-2.3555-.5157-.5859-1.1133-.996-1.793-1.2304-.6562-.2578-1.3359-.3867-2.0391-.3867-.8906 0-1.8515.2695-2.8828.8085-1.0312.5391-1.9922 1.4766-2.8828 2.8126-.8672 1.3359-1.5937 3.1406-2.1797 5.414-.5625 2.25-.8437 5.0977-.8437 8.543ZM91.8008 56.4141c0-2.625.4101-4.9922 1.2304-7.1016.8204-2.1328 1.9805-3.9492 3.4805-5.4492 1.5-1.5 3.3047-2.6485 5.4143-3.4453 2.133-.8203 4.488-1.2305 7.066-1.2305 2.32 0 4.453.3867 6.399 1.1602 1.968.7734 3.668 1.8867 5.097 3.3398 1.43 1.4297 2.543 3.1758 3.34 5.2383.82 2.039 1.231 4.3359 1.231 6.8906 0 3.0234-.504 5.6133-1.512 7.7695-.985 2.1563-2.262 3.9258-3.832 5.3086-1.547 1.3828-3.281 2.4024-5.203 3.0586-1.922.6328-3.809.9492-5.66.9492-2.227 0-4.372-.3632-6.434-1.0898-2.039-.75-3.8438-1.8281-5.4141-3.2344-1.5703-1.4062-2.8359-3.1289-3.7969-5.1679-.9375-2.0625-1.4062-4.3946-1.4062-6.9961ZM108.5 40.5586c-1.336 0-2.496.3398-3.48 1.0195-.961.6563-1.758 1.5586-2.391 2.7071-.633 1.125-1.102 2.4492-1.406 3.9726-.282 1.5-.422 3.082-.422 4.7461 0 1.3828.082 2.7773.246 4.1836.164 1.4063.41 2.7656.738 4.0781.352 1.2891.774 2.5078 1.266 3.6563.515 1.125 1.125 2.1093 1.828 2.9531.703.8438 1.5 1.5117 2.391 2.0039.914.4688 1.921.7031 3.023.7031 1.43 0 2.625-.3164 3.586-.9492.984-.6562 1.769-1.5 2.355-2.5312.586-1.0547.996-2.2266 1.231-3.5157.258-1.3125.387-2.625.387-3.9375 0-3.2343-.235-6.0468-.704-8.4375-.468-2.3906-1.125-4.3711-1.968-5.9414-.844-1.5937-1.84-2.7773-2.989-3.5507-1.125-.7735-2.355-1.1602-3.691-1.1602ZM138.77 33.1406c0 .2813-.012.6797-.036 1.1953-.023.4922-.035 1.0079-.035 1.5469 0 .6797.035 1.4063.106 2.1797.093.75.199 1.4531.316 2.1094.141.6328.27 1.1719.387 1.6172.14.4218.258.6328.351.6328.094 0 .223-.3399.387-1.0196.188-.6796.445-1.5351.774-2.5664.351-1.0312.796-2.1328 1.335-3.3047.54-1.1953 1.231-2.3085 2.075-3.3398.843-1.0312 1.851-1.8867 3.023-2.5664 1.195-.6797 2.602-1.0195 4.219-1.0195 1.5 0 2.754.2578 3.762.7734 1.031.5156 1.851 1.1602 2.461 1.9336.609.7734 1.043 1.6172 1.3 2.5313.258.8906.387 1.7343.387 2.5312 0 1.2422-.164 2.332-.492 3.2695-.328.9141-.774 1.6758-1.336 2.2852-.539.6094-1.16 1.0781-1.863 1.4062-.703.3047-1.418.4571-2.145.4571-1.336 0-2.426-.3164-3.269-.9492-.844-.6329-1.266-1.5586-1.266-2.7774 0-.6562.082-1.2187.246-1.6875.188-.4687.422-.8672.703-1.1953.305-.3281.656-.5977 1.055-.8086.422-.2344.879-.4219 1.371-.5625 1.008-.3047 1.687-.6797 2.039-1.125.375-.4453.563-.9609.563-1.5469 0-.3515-.071-.6914-.211-1.0195-.118-.3281-.329-.6211-.633-.8789-.282-.2813-.656-.5039-1.125-.668-.446-.164-.996-.2461-1.653-.2461-1.336 0-2.507.3164-3.515.9492-1.008.6094-1.887 1.4415-2.637 2.4961-.75 1.0313-1.371 2.2266-1.863 3.586s-.891 2.789-1.196 4.289c-.304 1.4766-.527 2.9766-.667 4.5-.118 1.5-.176 2.9063-.176 4.2188 0 1.1953.047 2.4961.14 3.9023.094 1.3828.211 2.7774.352 4.1836.164 1.4063.34 2.7774.527 4.1133.188 1.3359.364 2.5547.528 3.6563.187 1.1015.351 2.0507.492 2.8476.14.7969.246 1.3477.316 1.6524.258 1.0546.656 1.7929 1.195 2.2148.563.3984 1.301.5977 2.215.5977.399 0 .809-.0118 1.231-.0352.445-.0234.773-.0352.984-.0352.633 0 .949.2344.949.7032 0 .375-.175.6211-.527.7382-.281.1172-.785.1876-1.512.211-.703.0234-1.535.0469-2.496.0703-.937.0234-1.957.0586-3.058.1055-1.102.0468-2.168.1289-3.2.2461-1.148.1406-2.261.3398-3.339.5976-1.079.2344-2.075.4688-2.989.7031-.914.211-1.722.3985-2.425.5625-.704.1641-1.266.2461-1.688.2461-.445 0-.75-.0937-.914-.2812-.164-.1875-.246-.3867-.246-.5977 0-.3515.141-.5976.422-.7383.304-.164.715-.3281 1.23-.4921.399-.1172.867-.2344 1.406-.3516.563-.1406 1.219-.375 1.969-.7031.75-.3282 1.266-.7617 1.547-1.3008.305-.5625.457-1.4063.457-2.5313 0-.3515-.023-.9375-.07-1.7578-.047-.8437-.117-1.8398-.211-2.9883-.07-1.1484-.164-2.4023-.281-3.7617-.094-1.3828-.2-2.789-.317-4.2187-.117-1.4531-.246-2.8946-.387-4.3242-.117-1.4297-.234-2.7657-.351-4.0078-.117-1.2657-.234-2.3907-.352-3.375-.093-.9844-.175-1.7696-.246-2.3555-.093-.7031-.234-1.2539-.422-1.6524-.187-.4218-.41-.7382-.668-.9492-.257-.2109-.562-.3398-.914-.3867-.328-.0703-.691-.1055-1.089-.1055h-1.899c-.164-.0234-.328-.0586-.492-.1054-.164-.0703-.305-.1641-.422-.2813-.094-.1172-.141-.2695-.141-.457 0-.2578.106-.4453.317-.5625.211-.1172.469-.1992.773-.2461 1.172-.1406 2.227-.3399 3.164-.5977.961-.2578 1.899-.7265 2.813-1.4062.562-.4453 1.148-1.0313 1.758-1.7578.632-.75 1.148-1.5352 1.547-2.3555.281-.5859.585-.8789.914-.8789.304 0 .492.1172.562.3516.07.2343.106.457.106.6679ZM188.691 35.3203c1.196 0 2.274.1875 3.235.5625.961.3516 1.781.8438 2.461 1.4766.679.6328 1.195 1.3711 1.547 2.2148.375.8438.562 1.7461.562 2.707 0 1.8985-.457 3.375-1.371 4.4297-.891 1.0313-2.098 1.5469-3.621 1.5469-.633 0-1.219-.0937-1.758-.2812-.539-.1875-1.008-.4688-1.406-.8438-.399-.375-.715-.832-.949-1.3711-.235-.539-.352-1.1484-.352-1.8281 0-.75.094-1.418.281-2.0039.211-.6094.317-1.207.317-1.793 0-.7969-.235-1.3476-.703-1.6523-.469-.3047-1.008-.4571-1.618-.4571-.796 0-1.605.2696-2.425.8086-.797.5391-1.453 1.2539-1.969 2.1446-.211.3984-.399.8203-.563 1.2656-.14.4219-.211.7969-.211 1.125 0 .1875.106.3984.317.6328.211.2109.48.457.808.7383.352.2812.739.6094 1.161.9844.445.3515.878.7617 1.3 1.2304.75.8203 1.43 1.8516 2.039 3.0938.61 1.2422.915 2.707.915 4.3945 0 1.875-.211 3.5156-.633 4.9219-.422 1.3828-1.008 2.5898-1.758 3.6211-.727 1.0078-1.582 1.8515-2.567 2.5312-.984.6563-2.05 1.1836-3.199 1.5821-1.125.3984-2.308.6796-3.551.8437-1.218.1641-2.425.2461-3.621.2461h-1.371c-1.523.2578-2.765.7383-3.726 1.4414-.938.7031-1.407 1.6172-1.407 2.7422 0 .7266.235 1.3359.704 1.8281.468.4922 1.089.9141 1.863 1.2657.797.3281 1.711.5976 2.742.8085 1.031.1875 2.098.3633 3.199.5274 1.125.1406 2.239.2812 3.34.4219 1.125.1406 2.168.3046 3.129.4922 1.617.3281 3.176.7617 4.676 1.3007 1.523.5391 2.859 1.2539 4.008 2.1446 1.172.914 2.109 2.0507 2.812 3.4101.703 1.3594 1.055 3.0117 1.055 4.957 0 1.5235-.258 2.9415-.774 4.254-.515 1.3359-1.23 2.5546-2.144 3.6562-.914 1.125-1.992 2.1445-3.235 3.0586-1.242.914-2.578 1.699-4.007 2.355-1.875.868-3.926 1.524-6.153 1.969-2.226.446-4.547.668-6.961.668-2.25 0-4.359-.246-6.328-.738-1.969-.492-3.691-1.254-5.168-2.285-1.453-1.008-2.601-2.285-3.445-3.8323-.844-1.5469-1.266-3.3633-1.266-5.4492 0-1.7109.282-3.2578.844-4.6406.563-1.3828 1.277-2.625 2.145-3.7266.89-1.0781 1.875-2.0273 2.953-2.8476 1.101-.8204 2.168-1.5235 3.199-2.1094 1.055-.586 2.027-1.0664 2.918-1.4414s1.582-.6563 2.074-.8438c-.82-.0937-1.652-.2578-2.496-.4922-.82-.2343-1.57-.5507-2.25-.9492-.656-.3984-1.195-.9023-1.617-1.5117-.422-.6328-.633-1.3828-.633-2.25 0-1.1484.492-2.1211 1.477-2.918 1.007-.8203 2.414-1.4531 4.218-1.8984-1.336-.3516-2.578-.8555-3.726-1.5117-1.149-.6797-2.145-1.5117-2.988-2.4961-.844-.9844-1.512-2.1446-2.004-3.4805-.469-1.3359-.704-2.8476-.704-4.5351 0-2.086.364-3.9493 1.09-5.5899.75-1.6406 1.758-3.0234 3.024-4.1484 1.265-1.1485 2.754-2.0157 4.465-2.6016 1.711-.6094 3.55-.9141 5.519-.9141.586 0 1.184.0352 1.793.1055.609.0469 1.184.1172 1.723.211.539.0703 1.031.1406 1.476.2109.469.0469.844.0703 1.125.0703.586 0 1.067-.082 1.442-.2461.398-.164.761-.5156 1.09-1.0547.468-.75.984-1.5 1.546-2.25.563-.75 1.219-1.4179 1.969-2.0039.75-.6094 1.617-1.0898 2.602-1.4414 1.008-.375 2.179-.5625 3.515-.5625Zm-15.82 9.0703c-.891 0-1.781.211-2.672.6328-.867.3985-1.652 1.0782-2.355 2.0391-.68.9375-1.242 2.168-1.688 3.6914-.422 1.5234-.633 3.3867-.633 5.5899 0 1.8046.188 3.3515.563 4.6406.398 1.2656.902 2.3203 1.512 3.164.632.8204 1.336 1.4297 2.109 1.8282.773.375 1.535.5625 2.285.5625.656 0 1.406-.1524 2.25-.4571.844-.3281 1.641-.9375 2.391-1.8281.75-.8906 1.383-2.1211 1.898-3.6914.539-1.5703.809-3.6094.809-6.1172 0-3.3281-.586-5.8359-1.758-7.5234-1.148-1.6875-2.719-2.5313-4.711-2.5313Zm-11.039 46.5821c0 1.7109.246 3.3046.738 4.7812.516 1.5 1.266 2.8008 2.25 3.9023.985 1.1248 2.192 2.0038 3.621 2.6368 1.43.656 3.071.984 4.922.984 2.11 0 3.926-.339 5.449-1.019 1.524-.656 2.778-1.535 3.762-2.6369.985-1.0781 1.711-2.332 2.18-3.7617.469-1.4063.703-2.8711.703-4.3946 0-1.4765-.187-2.871-.562-4.1836-.375-1.289-.95-2.4609-1.723-3.5156-.774-1.0547-1.77-1.9804-2.988-2.7773-1.219-.7735-2.672-1.3828-4.36-1.8281-1.101-.3047-2.156-.5391-3.164-.7032-1.008-.1406-1.922-.2461-2.742-.3164-.82.4922-1.711 1.125-2.672 1.8985-.937.7968-1.816 1.7226-2.637 2.7773-.797 1.0781-1.464 2.2969-2.004 3.6563-.515 1.3593-.773 2.8593-.773 4.5ZM207.395 21.6094c1.382 0 2.484.3633 3.304 1.0898.821.7266 1.231 1.7578 1.231 3.0938 0 .8906-.141 1.6406-.422 2.25-.281.5859-.645 1.0664-1.09 1.4414-.445.3515-.938.6094-1.477.7734-.515.1406-1.031.211-1.546.211-.446 0-.915-.0704-1.407-.211s-.949-.375-1.371-.7031c-.422-.3516-.773-.7969-1.055-1.3359-.257-.5626-.386-1.254-.386-2.0743 0-.8672.14-1.582.422-2.1445.281-.5859.632-1.0547 1.054-1.4062.422-.3516.879-.5977 1.371-.7383.493-.1641.95-.2461 1.372-.2461Zm4.992 11.5312c.234 0 .351.2696.351.8086 0 .3516-.047.9375-.14 1.7578-.071.7969-.164 1.6524-.282 2.5664-.187 1.4532-.375 3.0704-.562 4.8516-.188 1.7578-.375 3.5742-.563 5.4492-.164 1.8516-.328 3.6914-.492 5.5196-.14 1.8281-.269 3.5273-.387 5.0976-.117 1.5469-.21 2.918-.281 4.1133-.07 1.1719-.105 2.0391-.105 2.6015 0 .7266.047 1.3243.14 1.793.094.4688.211.8555.352 1.1602.141.3047.293.5508.457.7383.187.1875.375.3515.563.4921.21.1407.468.2696.773.3868.305.1172.633.2343.984.3515.352.0938.703.1758 1.055.2461.375.0703.715.1172 1.02.1406.492.0938.89.1641 1.195.211.305.0469.457.1992.457.457 0 .4688-.504.7031-1.512.7031-.703 0-1.406-.0468-2.109-.1406-.703-.1172-1.43-.2461-2.18-.3867-.726-.1406-1.488-.2578-2.285-.3516-.797-.1172-1.652-.1758-2.566-.1758-.844 0-1.606.0235-2.286.0704-.679.0468-1.3.1054-1.863.1757-.562.0704-1.09.1289-1.582.1758-.492.0469-.984.0703-1.477.0703-.398 0-.761-.0468-1.089-.1406-.328-.1172-.493-.3398-.493-.668 0-.3281.176-.5507.528-.6679.375-.1407.75-.2461 1.125-.3164.469-.0938.926-.1993 1.371-.3164.445-.1172.844-.293 1.195-.5274.375-.2578.68-.5859.914-.9844.258-.4218.422-.9609.492-1.6171.094-1.2891.165-2.6016.211-3.9375.047-1.336.082-2.6485.106-3.9375.023-1.3125.035-2.5782.035-3.7969v-6.9961c0-1.0781-.023-1.9922-.07-2.7422-.047-1.1953-.188-2.1328-.422-2.8125-.211-.6797-.527-1.1836-.949-1.5117-.399-.3281-.914-.5391-1.547-.6328-.633-.1172-1.395-.211-2.285-.2813-.258-.0469-.469-.1289-.633-.2461-.141-.1172-.211-.3047-.211-.5625 0-.4453.351-.7031 1.055-.7734.351-.0235.796-.0586 1.335-.1055.54-.0703 1.161-.164 1.864-.2812.726-.1172 1.511-.2813 2.355-.4922.844-.2344 1.735-.5508 2.672-.9492 1.031-.4219 1.875-.8438 2.531-1.2657.68-.4218 1.231-.7968 1.653-1.125.422-.3515.75-.6328.984-.8437.234-.2344.434-.3516.598-.3516ZM257.457 42.3516c-.258-1.5469-.738-2.7657-1.441-3.6563-.704-.9141-1.418-1.5703-2.145-1.9687-.586-.3282-1.172-.5743-1.758-.7383-.562-.1641-1.054-.3164-1.476-.4571-.446-.164-.774-.3398-.985-.5273-.211-.1875-.316-.4453-.316-.7734 0-.6797.457-1.0196 1.371-1.0196.422 0 .832.0469 1.231.1407.398.0937.878.1992 1.441.3164.562.1172 1.23.2578 2.004.4218.773.1407 1.734.2579 2.883.3516 1.054.0938 1.945.1524 2.672.1758.726 0 1.335.0117 1.828.0351.515 0 .949.0235 1.3.0704.352.0234.668.0937.95.2109.422.1875.972.6445 1.652 1.3711.703.7265 1.477 1.6172 2.32 2.6719.867 1.0546 1.782 2.2265 2.742 3.5156.961 1.289 1.911 2.6016 2.848 3.9375.961 1.3125 1.887 2.5898 2.777 3.832.915 1.2422 1.735 2.3438 2.461 3.3047.75.9609 1.383 1.7344 1.899 2.3203.539.586.902.8789 1.09.8789.398 0 1.172-1.0781 2.32-3.2344 1.172-2.1796 2.824-5.4257 4.957-9.7382.586-1.1953 1.184-2.461 1.793-3.7969.633-1.3594 1.242-2.6953 1.828-4.0078.609-1.336 1.184-2.6133 1.723-3.8321.539-1.2187 1.031-2.2968 1.476-3.2343.469-.9375.879-1.6875 1.231-2.25.351-.586.621-.9024.808-.9492.118-.0469.235-.0704.352-.0704h.457c.422 0 1.008.0118 1.758.0352.75.0234 1.722.0352 2.918.0352.726 0 1.383-.0235 1.969-.0704.585-.0703 1.101-.1406 1.546-.2109.469-.0703.891-.1289 1.266-.1758.375-.0703.727-.1054 1.055-.1054.492 0 .808.0703.949.2109.164.1406.246.3047.246.4922 0 .4219-.352.7383-1.055.9492-.679.2109-1.64.4336-2.882.668-1.219.2109-2.59.5859-4.114 1.125-.937.3281-1.594.9257-1.968 1.7929-.376.8438-.563 1.8985-.563 3.1641 0 .9141.07 2.0859.211 3.5156.164 1.4063.375 2.9766.633 4.711.281 1.7109.609 3.539.984 5.4843.375 1.9219.774 3.8672 1.195 5.836.446 1.9453.903 3.8437 1.372 5.6953.492 1.8515.984 3.5625 1.476 5.1328.492 1.5703.973 2.9531 1.442 4.1484.492 1.1719.96 2.0508 1.406 2.6368.422.5625.844 1.0429 1.265 1.4414.446.3984.926.7382 1.442 1.0195.539.2812 1.113.5273 1.722.7383.633.2109 1.336.4219 2.11.6328.75.1875 1.265.3867 1.547.5976.281.211.422.4688.422.7735 0 .3281-.2.5976-.598.8086-.375.2109-.973.3164-1.793.3164-.984 0-2.016-.0352-3.094-.1055-1.055-.0703-2.226-.1055-3.515-.1055-2.086 0-3.997.1524-5.731.4571-1.711.3047-3.281.6445-4.711 1.0195-1.406.375-2.683.7148-3.832 1.0195-1.148.3047-2.203.4571-3.164.4571-.258 0-.516-.0469-.773-.1407-.258-.0937-.387-.3046-.387-.6328 0-.3515.211-.6445.633-.8789.422-.2109.961-.4101 1.617-.5976.68-.211 1.43-.4219 2.25-.6328.82-.211 1.629-.4922 2.426-.8438.82-.375 1.406-.8555 1.758-1.4414.374-.6094.562-1.3828.562-2.3203 0-.5391-.094-1.3828-.281-2.5313-.164-1.1484-.387-2.4843-.668-4.0078-.281-1.5234-.61-3.164-.985-4.9218-.351-1.7579-.726-3.5157-1.125-5.2735-.375-1.7578-.761-3.4453-1.16-5.0625-.375-1.6406-.715-3.082-1.019-4.3242-.305-1.2422-.574-2.2383-.809-2.9883-.211-.75-.34-1.125-.387-1.125-.07 0-.293.3164-.668.9492-.351.6328-.796 1.4766-1.336 2.5313-.539 1.0547-1.148 2.2617-1.828 3.6211-.679 1.3593-1.371 2.7539-2.074 4.1836-.68 1.4297-1.359 2.8476-2.039 4.2539-.68 1.4062-1.301 2.6953-1.863 3.8672-.563 1.1484-1.031 2.1211-1.406 2.9179-.375.7735-.622 1.2539-.739 1.4414-.234.4453-.48.9141-.738 1.4063-.258.4922-.527.9492-.809 1.3711-.257.3984-.504.7383-.738 1.0195-.234.2578-.433.3867-.598.3867-.14 0-.328-.1054-.562-.3164-.211-.2343-.434-.5156-.668-.8437-.234-.3282-.48-.6797-.738-1.0547-.235-.375-.434-.7149-.598-1.0195-.609-1.0547-1.324-2.2969-2.144-3.7266-.821-1.4531-1.688-2.9648-2.602-4.5352-.891-1.5937-1.781-3.1875-2.672-4.7812-.867-1.5938-1.687-3.0586-2.461-4.3945-.75-1.3594-1.394-2.5196-1.933-3.4805-.54-.9844-.903-1.6524-1.09-2.0039-.399-.7031-.739-1.2891-1.02-1.7578-.281-.4922-.527-.8789-.738-1.1602-.188-.2812-.352-.4805-.492-.5976-.141-.1407-.282-.211-.422-.211-.188 0-.281.1875-.281.5625s.035.8906.105 1.5469c.07.6328.129 1.1953.176 1.6875.234 2.2734.387 4.4062.457 6.3984.094 1.9688.141 3.8672.141 5.6953 0 1.6407-.094 3.4219-.282 5.3438-.187 1.8984-.504 3.8086-.949 5.7305-.445 1.8984-1.055 3.7265-1.828 5.4843-.75 1.7579-1.711 3.3164-2.883 4.6758s-2.566 2.4375-4.184 3.2344c-1.593.8203-3.457 1.2305-5.589 1.2305-1.243 0-2.344-.1993-3.305-.5977-.961-.3984-1.781-.9375-2.461-1.6172-.656-.6562-1.16-1.4062-1.512-2.25-.328-.8672-.492-1.7695-.492-2.707 0-.6563.082-1.3125.246-1.9688.188-.6562.481-1.2304.879-1.7226.399-.5156.902-.9258 1.512-1.2305.609-.3281 1.359-.4922 2.25-.4922.703 0 1.324.1289 1.863.3867.563.2344 1.055.5391 1.477.9141.445.3516.843.75 1.195 1.1953.352.4453.668.8672.949 1.2656.985 1.336 2.063 2.0039 3.235 2.0039 1.031 0 1.921-.3164 2.671-.9492.75-.6328 1.395-1.4765 1.934-2.5312.563-1.0781 1.02-2.3086 1.371-3.6914.352-1.3828.621-2.8242.809-4.3242.211-1.5.351-3 .422-4.5.093-1.5235.14-2.9414.14-4.254 0-2.3203-.094-4.5351-.281-6.6445-.187-2.1094-.41-3.9961-.668-5.6601Z"/><path fill="#0842B3" d="M325.066 21.6094c1.383 0 2.485.3633 3.305 1.0898.82.7266 1.231 1.7578 1.231 3.0938 0 .8906-.141 1.6406-.422 2.25-.282.5859-.645 1.0664-1.09 1.4414-.445.3515-.938.6094-1.477.7734-.515.1406-1.031.211-1.547.211-.445 0-.914-.0704-1.406-.211-.492-.1406-.949-.375-1.371-.7031-.422-.3516-.773-.7969-1.055-1.3359-.257-.5626-.386-1.254-.386-2.0743 0-.8672.14-1.582.422-2.1445.281-.5859.632-1.0547 1.054-1.4062.422-.3516.879-.5977 1.371-.7383.493-.1641.95-.2461 1.371-.2461Zm4.993 11.5312c.234 0 .351.2696.351.8086 0 .3516-.047.9375-.14 1.7578-.071.7969-.165 1.6524-.282 2.5664-.187 1.4532-.375 3.0704-.562 4.8516-.188 1.7578-.375 3.5742-.563 5.4492-.164 1.8516-.328 3.6914-.492 5.5196-.141 1.8281-.269 3.5273-.387 5.0976-.117 1.5469-.211 2.918-.281 4.1133-.07 1.1719-.105 2.0391-.105 2.6015 0 .7266.047 1.3243.14 1.793.094.4688.211.8555.352 1.1602.14.3047.293.5508.457.7383.187.1875.375.3515.562.4921.211.1407.469.2696.774.3868.305.1172.633.2343.984.3515.352.0938.703.1758 1.055.2461.375.0703.715.1172 1.019.1406.493.0938.891.1641 1.196.211.304.0469.457.1992.457.457 0 .4688-.504.7031-1.512.7031-.703 0-1.406-.0468-2.109-.1406-.703-.1172-1.43-.2461-2.18-.3867-.727-.1406-1.488-.2578-2.285-.3516-.797-.1172-1.653-.1758-2.567-.1758-.843 0-1.605.0235-2.285.0704-.679.0468-1.301.1054-1.863.1757-.563.0704-1.09.1289-1.582.1758-.492.0469-.984.0703-1.477.0703-.398 0-.761-.0468-1.089-.1406-.329-.1172-.493-.3398-.493-.668 0-.3281.176-.5507.528-.6679.375-.1407.75-.2461 1.125-.3164.468-.0938.925-.1993 1.371-.3164.445-.1172.844-.293 1.195-.5274.375-.2578.68-.5859.914-.9844.258-.4218.422-.9609.492-1.6171.094-1.2891.164-2.6016.211-3.9375.047-1.336.082-2.6485.106-3.9375.023-1.3125.035-2.5782.035-3.7969v-6.9961c0-1.0781-.024-1.9922-.07-2.7422-.047-1.1953-.188-2.1328-.422-2.8125-.211-.6797-.528-1.1836-.949-1.5117-.399-.3281-.915-.5391-1.547-.6328-.633-.1172-1.395-.211-2.286-.2813-.257-.0469-.468-.1289-.632-.2461-.141-.1172-.211-.3047-.211-.5625 0-.4453.351-.7031 1.054-.7734.352-.0235.797-.0586 1.336-.1055.539-.0703 1.16-.164 1.864-.2812.726-.1172 1.511-.2813 2.355-.4922.844-.2344 1.734-.5508 2.672-.9492 1.031-.4219 1.875-.8438 2.531-1.2657.68-.4218 1.231-.7968 1.653-1.125.421-.3515.75-.6328.984-.8437.234-.2344.434-.3516.598-.3516ZM345.914 32.7188c.188 0 .375.3046.563.914.187.586.375 1.3594.562 2.3203.188.961.375 2.0742.563 3.3399.187 1.2422.375 2.5078.562 3.7968l1.266 8.8594c.117-.7734.316-1.664.597-2.6719.305-1.0078.703-2.0507 1.196-3.1289.492-1.0781 1.089-2.1328 1.793-3.164.703-1.0313 1.511-1.9571 2.425-2.7774.938-.8203 1.981-1.4765 3.129-1.9687 1.172-.5156 2.473-.7735 3.903-.7735 1.757 0 3.281.3399 4.57 1.0196 1.289.6562 2.355 1.582 3.199 2.7773.844 1.1719 1.465 2.5781 1.863 4.2188.399 1.6406.598 3.4336.598 5.3789 0 1.7578-.105 3.5273-.316 5.3086-.188 1.7578-.399 3.4922-.633 5.2031-.211 1.7109-.422 3.3633-.633 4.957-.187 1.5938-.281 3.0821-.281 4.4649 0 .8203.07 1.5351.211 2.1445.14.6094.351 1.1719.633 1.6875.328.4922.726.9258 1.195 1.3008.492.3515.949.6914 1.371 1.0195.445.3047.82.6211 1.125.9492.328.3047.492.6328.492.9844 0 .2109-.058.3867-.176.5273-.117.1641-.316.2461-.597.2461-.422 0-.891-.164-1.406-.4921-.493-.3047-1.114-.6914-1.864-1.1602-.726-.4922-1.605-1.0078-2.636-1.5469-1.032-.5625-2.286-1.0781-3.762-1.5469-1.102-.375-2.215-.6679-3.34-.8789-1.102-.2109-2.391-.3515-3.867-.4218-.821-.0703-1.231-.3047-1.231-.7032 0-.4453.27-.6679.809-.6679h1.371c.586 0 1.184-.0235 1.793-.0703.937-.0703 1.711-.3516 2.32-.8438.61-.5156 1.067-1.4531 1.371-2.8125.094-.539.188-1.2187.282-2.039.093-.8438.175-1.7344.246-2.6719.07-.961.129-1.9336.175-2.918.047-.9844.071-1.9219.071-2.8125 0-.7969-.012-1.7109-.035-2.7422-.024-1.0547-.106-2.1445-.246-3.2695-.118-1.125-.317-2.2266-.598-3.3047-.258-1.0781-.645-2.0391-1.16-2.8828-.516-.8438-1.172-1.5234-1.969-2.0391-.797-.539-1.77-.8086-2.918-.8086-.984 0-1.887.2461-2.707.7383-.797.4922-1.512 1.1836-2.145 2.0742-.632.8672-1.171 1.8985-1.617 3.0938-.445 1.1953-.785 2.5078-1.019 3.9375-.258 1.4531-.434 2.9531-.528 4.5-.07 1.5234-.105 3.0469-.105 4.5703 0 1.2891.047 2.5312.141 3.7266.093 1.1718.222 2.2617.386 3.2695.164.9844.364 1.8633.598 2.6367.234.7734.504 1.3828.808 1.8281.446.6094.926 1.0664 1.442 1.3711.516.3047.949.5156 1.301.6328.468.1407.797.2696.984.3868.211.0937.316.2343.316.4218 0 .1407-.117.2696-.351.3868-.211.1171-.574.1757-1.09.1757-.492 0-1.031-.0351-1.617-.1054-.586-.0938-1.195-.1875-1.828-.2813-.633-.0937-1.289-.1758-1.969-.2461-.68-.0937-1.348-.1406-2.004-.1406-.656 0-1.324.0234-2.004.0703-.68.0469-1.336.0938-1.969.1406-.609.0469-1.171.0938-1.687.1407-.516.0468-.926.0703-1.231.0703-.914 0-1.371-.293-1.371-.8789 0-.211.071-.3868.211-.5274.164-.164.446-.2695.844-.3164.328-.0234.621-.0469.879-.0703.258-.0234.516-.0352.773-.0352.282-.0234.563-.0468.844-.0703.305-.0234.656-.0586 1.055-.1054.75-.1172 1.254-.3868 1.512-.8086.281-.4453.421-1.043.421-1.793 0-1.2891-.117-2.8594-.351-4.7109-.211-1.8516-.504-3.8907-.879-6.1172-.375-2.2266-.832-4.5821-1.371-7.0664-.516-2.5078-1.067-5.0625-1.652-7.6641-.282-1.3359-.61-2.332-.985-2.9883-.351-.6562-.867-.9844-1.547-.9844-.351 0-.715.0704-1.09.211-.375.1172-.75.2578-1.125.4219-.351.1406-.691.2812-1.019.4218-.328.1172-.633.1758-.914.1758-.445 0-.668-.1875-.668-.5625 0-.3047.117-.5156.351-.6328.258-.1406.528-.2695.809-.3867.656-.2578 1.359-.5859 2.109-.9844.774-.3984 1.606-.9375 2.497-1.6172.867-.6797 1.64-1.4062 2.32-2.1797.68-.7734 1.265-1.4882 1.758-2.1445.492-.6562.89-1.1953 1.195-1.6172.305-.4453.539-.6679.703-.6679Z"/><path fill="#0842B3" d="M385.781 85.8398c-1.195 0-2.414.0469-3.656.1407-1.242.0937-2.437.1992-3.586.3164-1.125.1406-2.156.2578-3.094.3515-.937.0938-1.711.1407-2.32.1407-.469 0-.785-.0821-.949-.2461-.188-.1641-.281-.375-.281-.6328 0-.5625.41-.8438 1.23-.8438 1.008 0 1.852-.082 2.531-.2461.68-.1406 1.278-.3047 1.793-.4922 1.055-.3984 1.875-.9843 2.461-1.7578.586-.7734 1.008-1.6406 1.266-2.6015.258-.961.41-1.9805.457-3.0586.047-1.0782.07-2.1094.07-3.0938 0-1.3594-.012-2.8476-.035-4.4648 0-1.6407-.023-3.3282-.07-5.0625-.024-1.7579-.047-3.5157-.071-5.2735-.023-1.7812-.058-3.4922-.105-5.1328-.024-1.664-.059-3.2109-.106-4.6406-.023-1.4531-.046-2.7188-.07-3.7969-.023-1.3594-.047-2.8359-.07-4.4297-.024-1.5937-.059-3.2109-.106-4.8515-.023-1.6641-.058-3.3164-.105-4.9571-.024-1.6406-.07-3.1758-.141-4.6054-.047-1.4297-.105-2.7071-.176-3.8321-.07-1.1484-.152-2.0625-.246-2.7422-.14-.9609-.386-1.7343-.738-2.3203-.352-.5859-.762-1.0312-1.23-1.3359-.446-.3281-.95-.5391-1.512-.6328-.539-.1172-1.09-.1758-1.652-.1758-.821 0-1.688.0703-2.602.2109-.914.1172-1.746.1758-2.496.1758-.61 0-1.043-.0703-1.301-.2109-.281-.1641-.422-.4102-.422-.7383 0-.2812.106-.5039.317-.668.211-.164.457-.2812.738-.3515 1.219-.2578 2.344-.5157 3.375-.7735 1.008-.2578 1.945-.5273 2.812-.8086.868-.3046 1.676-.6328 2.426-.9843.774-.3516 1.535-.7618 2.285-1.2305.821-.51563 1.512-1.05469 2.075-1.61719.585-.5625 1.078-1.06641 1.476-1.51172.422-.44531.774-.8086 1.055-1.08985.304-.30468.586-.45703.844-.45703.328 0 .539.16407.632.49219.118.30469.176.62109.176.94922 0 .375-.012.8789-.035 1.51172-.023.60937-.047 1.27734-.07 2.00386-.024.7266-.047 1.4649-.071 2.2149-.023.7265-.035 1.3828-.035 1.9687 0 .9141.012 2.168.035 3.7618.047 1.5937.094 3.3984.141 5.414.07 1.9922.141 4.125.211 6.3985.07 2.2734.141 4.5468.211 6.8203.094 2.2734.176 4.4882.246 6.6445.094 2.1328.176 4.0781.246 5.8359.094 1.7344.176 3.211.246 4.4297.07 1.1953.129 1.9922.176 2.3907.937-.9844 1.769-1.8399 2.496-2.5665.727-.7265 1.395-1.4179 2.004-2.0742.609-.6797 1.207-1.3593 1.793-2.039.609-.7032 1.266-1.5 1.969-2.3907.398-.539.691-1.0312.879-1.4765.187-.4453.281-.8672.281-1.2657 0-.9374-.504-1.664-1.512-2.1796l-2.883-1.3711c-.468-.2578-.703-.586-.703-.9844 0-.2344.059-.4336.176-.5977.117-.1875.34-.2812.668-.2812.281 0 .598.0937.949.2812.352.1875.809.4102 1.371.668.563.2578 1.242.5391 2.039.8438.797.3046 1.77.5742 2.918.8086.446.0937.973.1757 1.582.246.633.0704 1.278.1407 1.934.211.656.0469 1.289.0937 1.898.1406.633.0234 1.16.0352 1.582.0352.493 0 .879.0703 1.16.2109.282.1172.422.3398.422.668 0 .2578-.129.4804-.386.6679-.258.1641-.703.2461-1.336.2461-.61 0-1.219.0235-1.828.0703-.586.0469-1.172.1407-1.758.2813-.586.1406-1.172.3516-1.758.6328-.586.2813-1.184.6563-1.793 1.125-.375.2813-.82.6563-1.336 1.125-.492.4453-.996.9375-1.512 1.4766-.492.5156-.972 1.0547-1.441 1.6172-.469.539-.867 1.0546-1.195 1.5468.07.5157.234 1.3477.492 2.4961.281 1.125.656 2.4024 1.125 3.8321.469 1.4062 1.043 2.8711 1.722 4.3945.704 1.5 1.5 2.8711 2.391 4.1133.891 1.2422 1.899 2.2734 3.024 3.0937 1.125.7969 2.355 1.1953 3.691 1.1953 1.242 0 2.238-.4453 2.988-1.3359.75-.8906 1.125-2.0742 1.125-3.5508 0-.6328-.082-1.2422-.246-1.8281-.164-.6094-.375-1.1836-.633-1.7227-.258-.539-.562-1.0312-.914-1.4765-.351-.4688-.715-.8789-1.09-1.2305-.281-.2812-.574-.5273-.878-.7383-.282-.2344-.422-.4219-.422-.5625 0-.1875.129-.2812.386-.2812.282 0 .668.1523 1.16.457.516.2812.985.6094 1.407.9844.469.375.914.832 1.336 1.3711.445.5156.832 1.1133 1.16 1.7929.351.6797.621 1.4414.808 2.2852.211.8203.317 1.7344.317 2.7422 0 .7265-.117 1.582-.352 2.5664-.211.9844-.609 1.9336-1.195 2.8476-.563.8907-1.359 1.6524-2.391 2.2852-1.031.6328-2.355.9492-3.972.9492-2.18 0-4.125-.5039-5.836-1.5117-1.688-1.0313-3.188-2.4258-4.5-4.1836-1.289-1.7578-2.403-3.8086-3.34-6.1523-.938-2.3438-1.734-4.8282-2.391-7.4532l-1.441 1.5821c.047 1.1484.105 2.3906.176 3.7265.093 1.336.199 2.6836.316 4.043.117 1.3359.234 2.6484.352 3.9375.117 1.2891.222 2.4727.316 3.5508.117 1.0781.223 2.0156.316 2.8125.094.7734.176 1.3242.247 1.6523.14.7735.316 1.4649.527 2.0742.234.6094.539 1.125.914 1.5469.375.4219.855.7383 1.441.9492.586.2344 1.325.3516 2.215.3516.399 0 .82-.0117 1.266-.0352.469-.0234.914-.0351 1.336-.0351.304 0 .609.0117.914.0351.304.0469.574.1172.808.211.235.0937.422.2226.563.3867.164.1641.246.3867.246.668 0 .4218-.223.7851-.668 1.0898-.422.3281-1.277.4922-2.566.4922-.657 0-1.313-.0352-1.969-.1055-.633-.0468-1.371-.1172-2.215-.2109-.82-.0703-1.793-.1406-2.918-.2109-1.101-.0469-2.437-.0704-4.008-.0704ZM415.84 56.4141c0-2.625.41-4.9922 1.23-7.1016.821-2.1328 1.981-3.9492 3.481-5.4492 1.5-1.5 3.304-2.6485 5.414-3.4453 2.133-.8203 4.488-1.2305 7.066-1.2305 2.321 0 4.453.3867 6.399 1.1602 1.968.7734 3.668 1.8867 5.097 3.3398 1.43 1.4297 2.543 3.1758 3.34 5.2383.821 2.039 1.231 4.3359 1.231 6.8906 0 3.0234-.504 5.6133-1.512 7.7695-.984 2.1563-2.262 3.9258-3.832 5.3086-1.547 1.3828-3.281 2.4024-5.203 3.0586-1.922.6328-3.809.9492-5.66.9492-2.227 0-4.371-.3632-6.434-1.0898-2.039-.75-3.844-1.8281-5.414-3.2344-1.57-1.4062-2.836-3.1289-3.797-5.1679-.937-2.0625-1.406-4.3946-1.406-6.9961Zm16.699-15.8555c-1.336 0-2.496.3398-3.48 1.0195-.961.6563-1.758 1.5586-2.391 2.7071-.633 1.125-1.102 2.4492-1.406 3.9726-.282 1.5-.422 3.082-.422 4.7461 0 1.3828.082 2.7773.246 4.1836.164 1.4063.41 2.7656.738 4.0781.352 1.2891.774 2.5078 1.266 3.6563.515 1.125 1.125 2.1093 1.828 2.9531.703.8438 1.5 1.5117 2.391 2.0039.914.4688 1.921.7031 3.023.7031 1.43 0 2.625-.3164 3.586-.9492.984-.6562 1.77-1.5 2.355-2.5312.586-1.0547.997-2.2266 1.231-3.5157.258-1.3125.387-2.625.387-3.9375 0-3.2343-.235-6.0468-.703-8.4375-.469-2.3906-1.126-4.3711-1.969-5.9414-.844-1.5937-1.84-2.7773-2.989-3.5507-1.125-.7735-2.355-1.1602-3.691-1.1602ZM467.73 36.4453c0 .2578-.105.4688-.316.6328-.187.1641-.457.3867-.809.668-.445.3281-.843.7031-1.195 1.125-.328.3984-.492.9375-.492 1.6172 0 .6094.117 1.4531.352 2.5312.257 1.0782.597 2.2852 1.019 3.6211.422 1.336.902 2.7656 1.441 4.2891.54 1.5 1.09 3.0117 1.653 4.5351.562 1.5 1.125 2.9649 1.687 4.3946.563 1.4062 1.078 2.6718 1.547 3.7968.469 1.125.867 2.0743 1.195 2.8477.329.7734.54 1.2656.633 1.4766.328.7734.657 1.1601.985 1.1601.187 0 .34-.082.457-.2461.117-.164.211-.3398.281-.5273.07-.1875.223-.6914.457-1.5117.258-.8203.551-1.8164.879-2.9883.328-1.1719.68-2.4492 1.055-3.832.375-1.3829.714-2.7305 1.019-4.043.305-1.3125.551-2.5195.738-3.6211.211-1.1016.317-1.9688.317-2.6016 0-.375-.047-.6797-.141-.914-.07-.2578-.187-.4571-.351-.5977-.141-.164-.305-.2812-.493-.3516-.187-.0937-.386-.164-.597-.2109-.281-.0703-.656-.1172-1.125-.1406-.446-.0469-.879-.1055-1.301-.1758-.422-.0703-.785-.1641-1.09-.2812-.305-.1407-.457-.3516-.457-.6329 0-.3281.164-.5273.492-.5976.328-.0938.668-.1406 1.02-.1406.375 0 1.031.0586 1.969.1757.937.0938 2.203.1407 3.796.1407.469 0 1.02-.0352 1.653-.1055.633-.0937 1.265-.1875 1.898-.2813.656-.1171 1.266-.2109 1.828-.2812.586-.0938 1.055-.1406 1.407-.1406.351 0 .668.0351.949.1054.281.0704.422.2344.422.4922 0 .1875-.106.3516-.317.4922-.211.1172-.48.2344-.808.3516-.328.0937-.703.1758-1.125.2461-.399.0703-.809.1523-1.231.2461-.515.1172-.949.2812-1.301.4922-.351.1875-.644.4101-.878.6679-.235.2578-.434.5391-.598.8438-.164.3047-.316.6211-.457.9492-.328.8437-.645 1.7109-.949 2.6016-.282.8671-.598 1.8632-.95 2.9882-.351 1.125-.75 2.4141-1.195 3.8672-.445 1.4297-.973 3.1289-1.582 5.0977-.141.4219-.351 1.0898-.633 2.0039-.281.8906-.609 1.8984-.984 3.0234s-.774 2.2852-1.195 3.4805c-.399 1.1953-.797 2.2969-1.196 3.3047-.398.9844-.761 1.7929-1.09 2.4258-.328.6328-.597.9492-.808.9492-.235 0-.61-.3985-1.125-1.1953-.492-.7969-1.09-1.8516-1.793-3.1641-.703-1.3359-1.477-2.8711-2.32-4.6055-.821-1.7343-1.676-3.5507-2.567-5.4492-.867-1.8984-1.746-3.8086-2.637-5.7304-.867-1.9219-1.687-3.7266-2.461-5.4141-.75-1.7109-1.441-3.2344-2.074-4.5703-.609-1.336-1.09-2.3789-1.441-3.1289-.281-.6094-.574-1.1016-.879-1.4766-.305-.375-.621-.668-.949-.8789-.305-.2109-.621-.3516-.949-.4219-.329-.0703-.645-.1054-.95-.1054-.351 0-.726.0585-1.125.1757-.398.1172-.785.2578-1.16.4219-.351.1406-.703.2695-1.055.3867-.328.1172-.609.1758-.843.1758-.188 0-.375-.0586-.563-.1758-.164-.1172-.246-.3047-.246-.5625 0-.3047.176-.539.527-.7031.352-.1875.903-.4102 1.653-.668.75-.2578 1.594-.5507 2.531-.8789.961-.3281 1.957-.6797 2.988-1.0547 1.032-.3984 2.016-.8086 2.953-1.2304 1.149-.5156 2.145-1.0078 2.989-1.4766.867-.4687 1.629-.8789 2.285-1.2305.656-.3515 1.219-.6328 1.687-.8437.469-.2109.891-.3164 1.266-.3164.281 0 .481.0703.598.2109.117.1407.175.3047.175.4922Z"/></svg>